<?xml version="1.0" encoding="UTF-8" standalone="no"?>
<svg xmlns="http://www.w3.org/2000/svg" viewBox="0 0 400 100">
  <title>HOCH Logo</title>
  <g transform="translate(25,20)" id="HOCH-Logo">
		<g id="hoch" style="fill:#adcb2d;">
			<path  d="m 36.93,23.01 c -3.34,-3.43 -7.99,-5.46 -13.13,-5.46 -3.91,0 -7.33,1.3 -10.1,3.5 V 0 0 C 9.781,3.047 5.109,5.16 0,5.953 V 58.79 H 13.7 V 33.44 c 1.79,-1.96 4.73,-3.42 7.91,-3.42 1.87,0 3.58,0.57 4.97,2.03 0.97,1.15 1.71,2.7 1.71,5.22 V 58.79 H 41.98 V 37.36 c 0,-6.53 -1.87,-11.09 -5.05,-14.35" />
			<path d="m 89.34,38.58 c 0,-11.99 -9.29,-21.04 -21.6,-21.04 -12.31,0 -21.61,9.05 -21.61,21.04 0,11.98 9.3,20.95 21.61,20.95 12.31,0 21.6,-8.97 21.6,-20.95 m -12.46,0 c 0,5.05 -4.09,9.14 -9.14,9.14 -5.05,0 -9.15,-4.09 -9.15,-9.14 0,-5.05 4.1,-9.15 9.15,-9.15 5.05,0 9.14,4.1 9.14,9.15" />
			<path d="m 106.8,38.58 c 0,-5.63 4.2,-9.05 9.1,-9.05 3.3,0 5.8,1.47 8.1,3.91 l 8.5,-6.93 c -4.6,-5.87 -10.4,-8.97 -17.4,-8.97 -12.3,0 -21.72,9.05 -21.72,21.04 0,11.98 9.52,20.95 21.82,20.95 7.9,0 14.3,-3.75 18.1,-9.37 l -8.8,-6.61 c -1.7,1.79 -4.1,4 -8.5,4 -5.4,0 -9.2,-3.92 -9.2,-8.97" />
			<path d="m 173.5,23.01 c -3.3,-3.43 -8,-5.46 -13.1,-5.46 -3.9,0 -7.3,1.3 -10.1,3.5 V 0 0 c -3.9,3.047 -8.6,5.16 -13.7,5.953 V 58.79 h 13.7 V 33.44 c 1.8,-1.96 4.7,-3.42 7.9,-3.42 1.9,0 3.6,0.57 5,2.03 1,1.15 1.7,2.7 1.7,5.22 v 21.52 h 13.7 V 37.36 c 0,-6.53 -1.9,-11.09 -5.1,-14.35" />
		</g>
		<g id="Wortmarke" style="fill:#2b3840;">
			<g id="Health">
				<path d="M 196.4,33.13 V 11.91 h 4.5 v 9.17 h 8.2 v -9.17 h 4.4 v 21.22 h -4.4 v -8.21 h -8.2 v 8.21 h -4.5" />
				<path d="m 222.1,21.19 c 0.5,-0.36 1.2,-0.54 1.9,-0.54 0.8,0 1.4,0.19 1.9,0.56 0.6,0.37 0.9,0.87 1.1,1.5 0.1,0.23 0.1,0.46 0.2,0.7 h -6.5 c 0.1,-0.21 0.1,-0.43 0.2,-0.62 0.3,-0.7 0.7,-1.24 1.2,-1.6 z m 9.1,0.7 c -0.4,-0.92 -0.9,-1.73 -1.5,-2.43 -0.7,-0.71 -1.5,-1.25 -2.4,-1.64 -1,-0.39 -2.1,-0.59 -3.3,-0.59 -1.5,0 -2.8,0.36 -4,1.06 -1.2,0.7 -2.1,1.66 -2.8,2.87 -0.7,1.22 -1,2.61 -1,4.16 0,1.5 0.3,2.87 1,4.1 0.6,1.24 1.6,2.22 2.8,2.95 1.2,0.73 2.6,1.1 4.3,1.1 1.1,0 2,-0.16 2.9,-0.47 0.9,-0.32 1.7,-0.76 2.4,-1.33 0.6,-0.56 1.1,-1.23 1.4,-1.99 l -3.4,-1.62 c -0.3,0.53 -0.8,0.95 -1.3,1.25 -0.5,0.3 -1.2,0.46 -1.9,0.46 -0.9,0 -1.6,-0.19 -2.2,-0.56 -0.6,-0.37 -1,-0.89 -1.3,-1.55 -0.1,-0.34 -0.2,-0.71 -0.3,-1.11 h 10.9 c 0.1,-0.21 0.1,-0.46 0.2,-0.76 0,-0.29 0,-0.59 0,-0.9 0,-1.08 -0.2,-2.08 -0.5,-3" />
				<path d="m 242.9,28.64 c -0.3,0.52 -0.7,0.93 -1.2,1.24 -0.6,0.3 -1.2,0.46 -1.9,0.46 -0.5,0 -1,-0.14 -1.3,-0.4 -0.4,-0.27 -0.6,-0.64 -0.6,-1.12 0,-0.51 0.2,-0.9 0.5,-1.18 0.3,-0.27 0.8,-0.46 1.4,-0.58 l 3.5,-0.63 v 0.49 c 0,0.62 -0.1,1.2 -0.4,1.72 z m 3.9,-8.71 c -0.6,-0.85 -1.4,-1.51 -2.4,-1.98 -1,-0.48 -2.1,-0.72 -3.5,-0.72 -1.1,0 -2.1,0.18 -3,0.52 -0.9,0.34 -1.7,0.82 -2.4,1.45 -0.7,0.62 -1.1,1.37 -1.4,2.25 l 3.4,1.62 c 0.2,-0.68 0.7,-1.23 1.2,-1.65 0.6,-0.42 1.3,-0.63 2,-0.63 0.8,0 1.5,0.2 1.9,0.6 0.5,0.4 0.7,0.9 0.7,1.48 v 0.42 l -4.3,0.69 c -1.2,0.19 -2.2,0.52 -3.1,0.97 -0.8,0.46 -1.4,1.02 -1.8,1.7 -0.4,0.67 -0.6,1.44 -0.6,2.32 0,0.93 0.2,1.73 0.7,2.4 0.4,0.68 1,1.2 1.8,1.56 0.9,0.36 1.8,0.54 3,0.54 0.8,0 1.5,-0.11 2.2,-0.33 0.7,-0.22 1.3,-0.55 1.9,-1 0.2,-0.15 0.3,-0.32 0.5,-0.5 v 1.49 h 4 V 22.87 c 0,-1.12 -0.3,-2.1 -0.8,-2.94" />
				<path d="M 250.7,33.13 V 11.91 h 4.3 v 21.22 h -4.3" />
				<path d="m 265.6,33.3 c -1.8,0 -3.3,-0.51 -4.3,-1.53 -1.1,-1.01 -1.6,-2.43 -1.6,-4.25 v -6.24 h -2.6 v -3.71 h 0.1 c 0.8,0 1.4,-0.2 1.9,-0.59 0.4,-0.4 0.6,-1 0.6,-1.8 v -1.14 h 4.3 v 3.53 h 3.6 v 3.71 H 264 v 5.95 c 0,0.53 0.1,0.97 0.3,1.32 0.2,0.36 0.5,0.62 0.9,0.79 0.4,0.17 0.8,0.25 1.4,0.25 0.2,0 0.3,0 0.5,0 0.2,0 0.3,0 0.5,-0.1 v 3.65 c -0.3,0 -0.6,0.1 -0.9,0.1 -0.4,0 -0.7,0 -1.1,0" />
				<path d="m 283.6,20.04 c -0.5,-0.88 -1.1,-1.57 -2,-2.07 -0.9,-0.49 -1.9,-0.74 -3.1,-0.74 -1.1,0 -2,0.23 -2.9,0.67 -0.5,0.28 -0.9,0.67 -1.2,1.13 v -7.46 h -4.3 v 21.56 h 4.3 v -9.09 c 0,-0.61 0.1,-1.13 0.4,-1.57 0.2,-0.43 0.5,-0.77 1,-1.02 0.4,-0.25 0.9,-0.37 1.5,-0.37 0.5,0 1,0.12 1.5,0.37 0.4,0.25 0.7,0.59 0.9,1.02 0.3,0.44 0.4,0.96 0.4,1.57 v 9.09 h 4.3 v -10 c 0,-1.18 -0.3,-2.21 -0.8,-3.09" />
			</g>
			<g id="Ostschweiz">
				<path d="m 205,55.14 c 0.9,0 1.8,-0.17 2.7,-0.51 0.8,-0.34 1.5,-0.82 2.2,-1.44 0.6,-0.62 1.1,-1.35 1.4,-2.21 0.3,-0.85 0.5,-1.79 0.5,-2.82 0,-1.02 -0.2,-1.96 -0.5,-2.8 -0.3,-0.85 -0.8,-1.58 -1.4,-2.21 -0.7,-0.63 -1.4,-1.11 -2.2,-1.44 -0.9,-0.33 -1.8,-0.5 -2.7,-0.5 -1,0 -1.9,0.17 -2.7,0.5 -0.8,0.33 -1.6,0.81 -2.2,1.44 -0.6,0.63 -1.1,1.36 -1.4,2.21 -0.4,0.84 -0.6,1.78 -0.6,2.8 0,1.03 0.2,1.97 0.6,2.82 0.3,0.86 0.8,1.59 1.4,2.21 0.6,0.62 1.4,1.1 2.2,1.44 0.8,0.34 1.7,0.51 2.7,0.51 z m 0,3.99 c -1.6,0 -3.1,-0.28 -4.5,-0.83 -1.3,-0.55 -2.5,-1.32 -3.5,-2.32 -1.1,-1 -1.8,-2.16 -2.4,-3.49 -0.6,-1.33 -0.9,-2.77 -0.9,-4.33 0,-1.55 0.3,-3 0.9,-4.33 0.5,-1.33 1.3,-2.48 2.3,-3.47 1,-0.99 2.2,-1.76 3.6,-2.31 1.4,-0.55 2.9,-0.82 4.5,-0.82 1.6,0 3.1,0.27 4.4,0.82 1.4,0.55 2.6,1.32 3.6,2.31 1,0.99 1.8,2.14 2.4,3.47 0.5,1.33 0.8,2.78 0.8,4.33 0,1.56 -0.3,3 -0.8,4.33 -0.6,1.33 -1.4,2.49 -2.4,3.49 -1,1 -2.2,1.77 -3.6,2.32 -1.3,0.55 -2.8,0.83 -4.4,0.83" />
				<path d="m 229.7,51.45 c -0.7,-0.77 -1.6,-1.34 -2.9,-1.72 l -1.1,-0.32 -1.4,-0.42 c -0.4,-0.11 -0.7,-0.24 -1,-0.37 -0.2,-0.14 -0.4,-0.29 -0.5,-0.46 -0.1,-0.17 -0.2,-0.36 -0.2,-0.57 0,-0.39 0.2,-0.71 0.5,-0.94 0.3,-0.22 0.7,-0.34 1.3,-0.34 0.7,0 1.4,0.2 2,0.58 0.5,0.34 0.9,0.79 1.1,1.32 l 3,-1.94 c -0.5,-0.96 -1.2,-1.73 -2.1,-2.31 -1.2,-0.71 -2.5,-1.07 -4,-1.07 -1.2,0 -2.2,0.21 -3.1,0.61 -0.9,0.41 -1.6,0.98 -2.1,1.7 -0.5,0.72 -0.7,1.57 -0.7,2.53 0,1.11 0.3,2.06 1,2.87 0.5,0.63 1.2,1.11 2.1,1.47 0.3,0.11 0.5,0.2 0.8,0.28 l 2.7,0.74 c 0.3,0.1 0.6,0.21 0.8,0.34 0.3,0.14 0.4,0.28 0.5,0.44 0.2,0.17 0.2,0.36 0.2,0.59 0,0.43 -0.1,0.77 -0.5,1.02 -0.3,0.25 -0.8,0.37 -1.4,0.37 -0.8,0 -1.6,-0.23 -2.2,-0.71 -0.6,-0.4 -1.1,-0.93 -1.5,-1.59 l -2.9,1.99 c 0.5,0.96 1.2,1.75 2.2,2.38 1.2,0.8 2.7,1.21 4.4,1.21 1.2,0 2.3,-0.21 3.2,-0.61 0.9,-0.41 1.6,-0.98 2.1,-1.7 0.5,-0.72 0.7,-1.57 0.7,-2.53 0,-1.13 -0.3,-2.07 -1,-2.84" />
				<path d="m 240.6,58.96 c -1.9,0 -3.3,-0.51 -4.4,-1.53 -1,-1.01 -1.5,-2.43 -1.5,-4.25 v -6.24 h -2.6 v -3.71 h 0.1 c 0.8,0 1.4,-0.19 1.8,-0.59 0.5,-0.4 0.7,-1 0.7,-1.8 V 39.7 h 4.3 v 3.53 h 3.6 v 3.71 H 239 v 5.95 c 0,0.53 0.1,0.97 0.2,1.32 0.2,0.36 0.5,0.62 0.9,0.79 0.4,0.17 0.9,0.25 1.5,0.25 0.1,0 0.3,0 0.5,0 0.1,0 0.3,0 0.5,-0.1 v 3.65 c -0.3,0 -0.6,0.1 -1,0.1 -0.3,0 -0.7,0.1 -1,0.1" />
				<path d="m 256.7,51.45 c -0.7,-0.77 -1.7,-1.34 -3,-1.72 l -1,-0.32 -1.4,-0.42 c -0.4,-0.11 -0.7,-0.24 -1,-0.37 -0.2,-0.14 -0.4,-0.29 -0.5,-0.46 -0.2,-0.17 -0.2,-0.36 -0.2,-0.57 0,-0.39 0.1,-0.71 0.5,-0.94 0.3,-0.22 0.7,-0.34 1.2,-0.34 0.8,0 1.5,0.2 2.1,0.58 0.5,0.34 0.9,0.79 1.1,1.32 l 3,-1.94 c -0.5,-0.96 -1.2,-1.73 -2.1,-2.31 -1.2,-0.71 -2.5,-1.07 -4.1,-1.07 -1.1,0 -2.1,0.21 -3,0.61 -0.9,0.41 -1.6,0.98 -2.1,1.7 -0.5,0.72 -0.7,1.57 -0.7,2.53 0,1.11 0.3,2.06 1,2.87 0.5,0.63 1.2,1.11 2.1,1.47 0.3,0.11 0.5,0.2 0.8,0.28 l 2.7,0.74 c 0.3,0.1 0.6,0.21 0.8,0.34 0.2,0.14 0.4,0.28 0.5,0.44 0.1,0.17 0.2,0.36 0.2,0.59 0,0.43 -0.2,0.77 -0.5,1.02 -0.3,0.25 -0.8,0.37 -1.4,0.37 -0.8,0 -1.6,-0.23 -2.3,-0.71 -0.5,-0.4 -1,-0.93 -1.4,-1.59 l -2.9,1.99 c 0.5,0.96 1.2,1.75 2.2,2.38 1.2,0.8 2.7,1.21 4.4,1.21 1.2,0 2.3,-0.21 3.2,-0.61 0.9,-0.41 1.6,-0.98 2.1,-1.7 0.5,-0.72 0.7,-1.57 0.7,-2.53 0,-1.13 -0.3,-2.07 -1,-2.84" />
				<path d="m 267.4,59.13 c -1.5,0 -2.9,-0.36 -4.2,-1.07 -1.2,-0.71 -2.2,-1.68 -2.9,-2.92 -0.7,-1.23 -1.1,-2.62 -1.1,-4.16 0,-1.53 0.4,-2.92 1.1,-4.14 0.7,-1.23 1.7,-2.19 2.9,-2.89 1.3,-0.7 2.7,-1.06 4.2,-1.06 1.2,0 2.3,0.2 3.3,0.6 1,0.4 1.8,0.96 2.5,1.67 0.7,0.71 1.2,1.55 1.5,2.52 l -3.7,1.59 c -0.3,-0.77 -0.7,-1.39 -1.3,-1.85 -0.7,-0.46 -1.4,-0.68 -2.3,-0.68 -0.7,0 -1.4,0.18 -1.9,0.54 -0.6,0.36 -1.1,0.86 -1.4,1.51 -0.3,0.64 -0.5,1.39 -0.5,2.22 0,0.84 0.2,1.58 0.5,2.22 0.3,0.65 0.8,1.15 1.4,1.51 0.5,0.36 1.2,0.54 1.9,0.54 0.9,0 1.6,-0.23 2.3,-0.68 0.6,-0.46 1,-1.07 1.3,-1.85 l 3.7,1.62 c -0.3,0.91 -0.8,1.73 -1.5,2.45 -0.7,0.72 -1.5,1.29 -2.5,1.7 -1,0.4 -2.1,0.61 -3.3,0.61" />
				<path d="m 290.7,45.7 c -0.5,-0.88 -1.2,-1.57 -2,-2.07 -0.9,-0.49 -2,-0.74 -3.1,-0.74 -1.1,0 -2.1,0.23 -2.9,0.67 -0.5,0.28 -0.9,0.67 -1.2,1.13 v -7.46 h -4.3 v 21.56 h 4.3 V 49.7 c 0,-0.61 0.1,-1.13 0.3,-1.57 0.3,-0.43 0.6,-0.77 1.1,-1.02 0.4,-0.25 0.9,-0.37 1.4,-0.37 0.6,0 1.1,0.12 1.5,0.37 0.5,0.25 0.8,0.59 1,1.02 0.3,0.44 0.4,0.96 0.4,1.57 v 9.09 h 4.3 v -10 c 0,-1.18 -0.3,-2.21 -0.8,-3.09" />
				<path d="m 313.6,43.23 -3,9.04 -3.4,-9.04 h -3.7 l -3.3,9.04 -3.1,-9.04 h -4.4 l 5.4,15.56 h 3.7 l 3.6,-9.97 3.6,9.97 h 3.7 l 5.4,-15.56 h -4.5" />
				<path  d="m 324.6,46.85 c 0.6,-0.36 1.2,-0.54 1.9,-0.54 0.8,0 1.4,0.19 2,0.56 0.5,0.37 0.9,0.87 1.1,1.51 0,0.22 0.1,0.45 0.1,0.69 h -6.4 c 0,-0.21 0.1,-0.43 0.1,-0.62 0.3,-0.7 0.7,-1.24 1.2,-1.6 z m 9.1,0.7 c -0.3,-0.92 -0.8,-1.73 -1.5,-2.44 -0.6,-0.7 -1.4,-1.24 -2.4,-1.63 -0.9,-0.39 -2,-0.59 -3.3,-0.59 -1.4,0 -2.8,0.36 -3.9,1.06 -1.2,0.7 -2.2,1.66 -2.9,2.87 -0.6,1.22 -1,2.61 -1,4.16 0,1.5 0.3,2.87 1,4.1 0.7,1.24 1.6,2.22 2.8,2.95 1.2,0.73 2.7,1.1 4.3,1.1 1.1,0 2.1,-0.16 3,-0.47 0.9,-0.32 1.6,-0.76 2.3,-1.33 0.6,-0.56 1.1,-1.23 1.4,-1.99 l -3.4,-1.63 c -0.3,0.54 -0.7,0.96 -1.3,1.26 -0.5,0.3 -1.2,0.46 -1.9,0.46 -0.9,0 -1.6,-0.19 -2.2,-0.56 -0.5,-0.37 -1,-0.89 -1.3,-1.55 -0.1,-0.34 -0.2,-0.71 -0.3,-1.11 H 334 c 0.1,-0.21 0.2,-0.46 0.2,-0.76 0,-0.29 0,-0.59 0,-0.9 0,-1.08 -0.1,-2.08 -0.5,-3" />
				<path d="M 336.7,58.79 V 43.23 h 4.2 v 15.56 z m 0,-16.95 v -4.27 h 4.2 v 4.27 h -4.2" />
				<path d="m 349.7,55.08 7.4,-8.43 v -3.42 h -13 v 3.71 h 7.3 l -7.6,8.43 v 3.42 h 13.4 v -3.71 h -7.5" />
			</g>
		</g>
  </g>
</svg>
