<?xml version="1.0" encoding="UTF-8" standalone="no"?>
<svg
   xmlns:svg="http://www.w3.org/2000/svg"
   xmlns="http://www.w3.org/2000/svg"
   viewBox="0 0 178 73"
  >
  <title>KSSG Logo</title>
  <g transform="translate(11.32,7)"
     id="KSSG-Logo">
    <path id="Wortmarke" style="fill:#868686" 
       d="m 115.8,54.16 h 1.9 v -3.6 c 0,-0.94 0.3,-2.44 1.7,-2.44 1.2,0 1.3,1.21 1.3,2.11 v 3.93 h 1.9 v -4.64 c 0,-1.66 -0.8,-2.89 -2.5,-2.89 -1,0 -1.8,0.33 -2.4,1.17 h -0.1 v -1 h -1.8 z m -2,-1.97 c -0.7,0.4 -1.5,0.74 -2.5,0.74 -1.1,0 -2,-0.67 -2.1,-1.86 h 5.1 c 0,-2.57 -0.7,-4.44 -3.5,-4.44 -2.3,0 -3.4,1.76 -3.4,3.89 0,2.41 1.4,3.81 3.9,3.81 1,0 1.8,-0.2 2.5,-0.59 z m -4.6,-2.43 c 0.1,-0.98 0.7,-1.73 1.7,-1.73 1.1,0 1.5,0.8 1.6,1.73 z m -5.2,4.4 h 1.9 V 43.45 H 104 Z m -4.01,0 h 1.91 V 43.45 h -1.91 z m -7.6,-5.33 c 0.64,-0.48 1.46,-0.8 2.27,-0.8 1.13,0 1.66,0.4 1.66,1.59 h -1.06 c -0.8,0 -1.74,0.1 -2.47,0.43 -0.73,0.35 -1.26,1 -1.26,2.1 0,1.39 1.27,2.18 2.57,2.18 0.87,0 1.83,-0.46 2.27,-1.27 h 0 c 0,0.23 0,0.71 0.1,1.1 h 1.68 c -0,-0.57 -0.1,-1.09 -0.1,-1.64 -0,-0.55 -0,-1.1 -0,-1.84 v -0.95 c 0,-2.17 -0.93,-3.1 -3.17,-3.1 -0.81,0 -1.81,0.22 -2.56,0.56 z m 2.19,4.1 c -0.69,0 -1.22,-0.27 -1.22,-0.9 0,-1.13 1.27,-1.27 2.13,-1.27 h 0.83 c 0,0.57 -0.1,1.1 -0.4,1.51 -0.3,0.4 -0.76,0.66 -1.34,0.66 z m -4.8,-8.5 c -0.86,-0.25 -1.77,-0.41 -2.93,-0.41 -3.38,0 -5.46,1.91 -5.46,5.33 0,3.37 2.24,4.98 5.46,4.98 1.07,0 2.17,-0.23 3.23,-0.51 v -5.37 h -4.03 v 1.57 h 2.12 v 2.59 c -0.35,0.1 -0.78,0.15 -1.32,0.15 -2.13,0 -3.38,-1.53 -3.38,-3.56 0,-2.04 1.28,-3.61 3.61,-3.61 0.8,0 1.8,0.17 2.57,0.53 z m -12.05,9.73 h 2 v -2 h -2 z M 72.8,51.95 c 0,1.45 0.83,2.38 2.33,2.38 0.57,0 1.02,-0.1 1.41,-0.17 l -0.1,-1.52 c -0.2,0.13 -0.53,0.2 -0.87,0.2 -0.73,0 -0.9,-0.58 -0.9,-1.21 V 48.2 h 1.7 v -1.4 h -1.7 v -2.08 l -1.92,0.61 v 1.47 h -1.41 v 1.4 h 1.41 z m -2.85,-7.57 c -0.73,-0.24 -1.53,-0.36 -2.38,-0.36 -1.76,0 -3.49,0.82 -3.49,3.04 0,3.3 4.37,2.52 4.37,4.41 0,0.9 -1.01,1.29 -1.77,1.29 -0.78,0 -1.57,-0.25 -2.25,-0.61 l -0.19,1.79 c 0.98,0.25 1.47,0.39 2.56,0.39 2.01,0 3.73,-0.83 3.73,-3.01 0,-3.34 -4.36,-2.62 -4.36,-4.34 0,-1.09 0.88,-1.39 1.57,-1.39 0.7,0 1.4,0.16 2.02,0.43 z m 82.35,-7.09 h 1.9 V 26.58 h -1.9 z m -7.6,-5.33 c 0.7,-0.48 1.5,-0.8 2.3,-0.8 1.1,0 1.7,0.4 1.7,1.59 h -1.1 c -0.8,0 -1.7,0.1 -2.5,0.42 -0.7,0.36 -1.2,1 -1.2,2.1 0,1.4 1.2,2.19 2.5,2.19 0.9,0 1.9,-0.46 2.3,-1.27 h 0 c 0.1,0.22 0.1,0.71 0.1,1.1 h 1.7 c 0,-0.58 -0.1,-1.09 -0.1,-1.65 0,-0.54 0,-1.1 0,-1.84 v -0.94 c 0,-2.17 -0.9,-3.1 -3.2,-3.1 -0.8,0 -1.8,0.21 -2.5,0.56 z m 2.2,4.1 c -0.7,0 -1.2,-0.27 -1.2,-0.9 0,-1.13 1.3,-1.27 2.1,-1.27 h 0.9 c 0,0.57 -0.1,1.1 -0.4,1.51 -0.3,0.4 -0.8,0.66 -1.4,0.66 z m -7.5,-0.99 c 0,1.46 0.8,2.39 2.3,2.39 0.6,0 1.1,-0.1 1.5,-0.17 l -0.1,-1.52 c -0.2,0.13 -0.5,0.2 -0.9,0.2 -0.7,0 -0.9,-0.58 -0.9,-1.21 v -3.43 h 1.7 v -1.4 h -1.7 v -2.08 l -1.9,0.61 v 1.47 H 138 v 1.4 h 1.4 z m -4.5,-6.48 h 1.9 v -1.83 h -1.9 z m 0,8.7 h 1.9 v -7.36 h -1.9 z m -8.8,2.99 h 1.9 v -3.84 h 0 c 0.7,0.82 1.4,1.02 2.2,1.02 2.3,0 3.1,-1.86 3.1,-3.87 0,-2.03 -0.8,-3.83 -3.1,-3.83 -1.1,0 -1.8,0.5 -2.2,1.21 h -0.1 v -1.04 h -1.8 z m 1.9,-6.69 c 0,-1.03 0.5,-2.34 1.7,-2.34 1.3,0 1.6,1.35 1.6,2.34 0,1.01 -0.3,2.38 -1.6,2.38 -1.3,0 -1.7,-1.34 -1.7,-2.38 z m -3.7,-3.56 c -0.6,-0.13 -1.2,-0.27 -2.1,-0.27 -1.5,0 -2.9,0.7 -2.9,2.28 0,2.66 3.3,1.68 3.3,3.12 0,0.71 -0.8,0.9 -1.2,0.9 -0.7,0 -1.3,-0.19 -1.9,-0.49 l -0.1,1.57 c 0.7,0.19 1.4,0.31 2.1,0.31 1.6,0 3.1,-0.68 3.1,-2.39 0,-2.66 -3.3,-1.92 -3.3,-3.09 0,-0.62 0.6,-0.81 1.1,-0.81 0.7,0 1.1,0.12 1.7,0.32 z m -6.4,0 c -0.6,-0.13 -1.2,-0.27 -2.1,-0.27 -1.5,0 -2.8,0.7 -2.8,2.28 0,2.66 3.3,1.68 3.3,3.12 0,0.71 -0.8,0.9 -1.3,0.9 -0.6,0 -1.3,-0.19 -1.9,-0.49 l -0.1,1.57 c 0.7,0.19 1.5,0.31 2.2,0.31 1.5,0 3.1,-0.68 3.1,-2.39 0,-2.66 -3.4,-1.92 -3.4,-3.09 0,-0.62 0.7,-0.81 1.2,-0.81 0.7,0 1.1,0.12 1.7,0.32 z m -13.2,7.26 h 1.9 v -3.6 c 0,-0.94 0.3,-2.44 1.7,-2.44 1.2,0 1.2,1.21 1.2,2.11 v 3.93 h 2 v -4.65 c 0,-1.65 -0.8,-2.88 -2.5,-2.88 -1,0 -1.9,0.33 -2.5,1.17 h 0 v -1 h -1.8 z m -5.35,-7.53 c -2.17,0 -3.84,1.47 -3.84,3.9 0,2.11 1.41,3.8 3.84,3.8 2.45,0 3.85,-1.69 3.85,-3.8 0,-2.43 -1.7,-3.9 -3.85,-3.9 z m 0,6.21 c -1.46,0 -1.85,-1.33 -1.85,-2.54 0,-1.1 0.61,-2.19 1.85,-2.19 1.25,0 1.85,1.06 1.85,2.19 0,1.23 -0.4,2.54 -1.85,2.54 z m -8.3,-0.9 c 0,1.46 0.83,2.39 2.33,2.39 0.57,0 1.01,-0.1 1.41,-0.17 l -0.1,-1.52 c -0.2,0.13 -0.53,0.2 -0.87,0.2 -0.73,0 -0.9,-0.58 -0.9,-1.21 v -3.43 h 1.69 v -1.4 h -1.69 v -2.08 l -1.92,0.61 v 1.47 h -1.41 v 1.4 h 1.41 z m -9.35,2.22 h 1.91 v -3.6 c 0,-0.94 0.31,-2.44 1.69,-2.44 1.23,0 1.24,1.21 1.24,2.11 v 3.93 h 1.92 v -4.65 c 0,-1.65 -0.76,-2.88 -2.5,-2.88 -1,0 -1.82,0.33 -2.42,1.17 h -0 v -1 H 81.7 Z m -7.55,-5.33 c 0.64,-0.48 1.46,-0.8 2.27,-0.8 1.13,0 1.65,0.4 1.65,1.59 h -1.05 c -0.8,0 -1.74,0.1 -2.47,0.42 -0.73,0.36 -1.26,1 -1.26,2.1 0,1.4 1.27,2.19 2.57,2.19 0.87,0 1.83,-0.46 2.27,-1.27 h 0 c 0,0.22 0,0.71 0.1,1.1 h 1.68 c -0,-0.58 -0.1,-1.09 -0.1,-1.65 -0,-0.54 -0,-1.1 -0,-1.84 v -0.94 c 0,-2.17 -0.93,-3.1 -3.17,-3.1 -0.82,0 -1.82,0.21 -2.56,0.56 z m 2.18,4.1 c -0.68,0 -1.21,-0.27 -1.21,-0.9 0,-1.13 1.27,-1.27 2.13,-1.27 h 0.82 c 0,0.57 -0.1,1.1 -0.4,1.51 -0.3,0.4 -0.75,0.66 -1.34,0.66 z M 64.41,27.32 h 2 v 4.28 l 3.6,-4.28 h 2.45 l -4.09,4.7 4.27,5.27 h -2.62 l -3.58,-4.63 h -0 v 4.63 h -2 z"
    />
    <path id="H" style="fill:#868686" 
       d="m 0,13.93 h 11.32 v 15.4 h 11.7 V 13.93 H 34.15 V 54.19 H 23.02 V 37.54 H 11.32 V 54.19 H 0 Z"
    />
    <path id="Liktorenbündel" style="fill:#a1c517" 
       d="m 39.9,54.33 h 1.24 V 13.75 H 39.9 Z m 2.78,0 h 1.24 V 13.75 h -1.24 z m 8.23,0 h 1.24 V 13.75 h -1.24 z m 0.8,-45.863 -0,-4.211 -0.6,-0.02 c -0,-0 -1.9,-0.07 -4.4,-0.557 V 0.9643 H 45.46 V 3.397 C 43.02,2.819 40.89,2.016 39.17,0.9877 L 38.6,0.6463 38.3,1.242 c -0.12,0.238 -2.88,5.84 0.63,10.128 l 0.36,0.44 0.47,-0.33 c 0,-0 2.12,-1.44 5.7,-2.318 V 61 H 46.7 V 8.9 C 48.14,8.626 49.61,8.476 51.09,8.47 Z M 45.95,7.774 c -3.2,0.676 -5.4,1.799 -6.36,2.356 -0.86,-1.262 -1.17,-2.645 -1.17,-3.924 0,-1.63 0.45,-3.057 0.74,-3.819 1.91,1.037 4.18,1.854 6.79,2.41 2.02,0.424 3.67,0.585 4.51,0.645 0,0.574 0,1.246 0,1.822 -1.53,0.04 -3.04,0.199 -4.52,0.51 z m 2.18,46.556 h 1.24 V 13.75 h -1.24 z"
    />
  </g>
</svg>
