<?xml version="1.0" encoding="UTF-8" standalone="no"?>
<svg viewBox="0 0 155 61" version="1.1" xmlns="http://www.w3.org/2000/svg" xmlns:xlink="http://www.w3.org/1999/xlink" xmlns:sketch="http://www.bohemiancoding.com/sketch/ns">
    <!-- Generator: Sketch 3.4 (15588) - http://www.bohemiancoding.com/sketch -->
    <title>KSSG Logo</title>
    <desc>Created with Sketch.</desc>
    <defs></defs>
    <g id="Page-1" stroke="none" stroke-width="1" fill="none" fill-rule="evenodd" sketch:type="MSPage">
        <g id="Startseite-+-Navigation-V1" sketch:type="MSArtboardGroup" transform="translate(-42.000000, -9.000000)">
            <g id="Navigation-/-Level_1-V2" sketch:type="MSLayerGroup">
                <g id="KSSG-Logo" transform="translate(42.000000, 9.000000)" sketch:type="MSShapeGroup">
                    <path d="M115.817326,54.1580064 L117.731687,54.1580064 L117.731687,50.5590064 C117.731687,49.6180489 118.030198,48.1177085 119.415028,48.1177085 C120.646709,48.1177085 120.658389,49.3312191 120.658389,50.2319426 L120.658389,54.1580064 L122.572751,54.1580064 L122.572751,49.5168149 C122.572751,47.8620277 121.814794,46.6342404 120.073049,46.6342404 C119.072389,46.6342404 118.261219,46.9613043 117.6629,47.8049213 L117.630453,47.8049213 L117.630453,46.8042617 L115.817326,46.8042617 L115.817326,54.1580064 Z M113.779666,52.189134 C113.064538,52.586283 112.266347,52.9289213 111.335772,52.9289213 C110.152113,52.9289213 109.322772,52.2592191 109.237113,51.0729638 L114.319581,51.0729638 C114.319581,48.5031766 113.55124,46.6342404 110.821815,46.6342404 C108.53756,46.6342404 107.409709,48.3889638 107.409709,50.5187723 C107.409709,52.9289213 108.824389,54.3280277 111.250113,54.3280277 C112.281921,54.3280277 113.077517,54.1281553 113.779666,53.7426872 L113.779666,52.189134 Z M109.237113,49.7608149 C109.322772,48.7770277 109.865283,48.0346447 110.936028,48.0346447 C112.00807,48.0346447 112.438964,48.8328362 112.492177,49.7608149 L109.237113,49.7608149 Z M103.953474,54.1580064 L105.867836,54.1580064 L105.867836,43.4505596 L103.953474,43.4505596 L103.953474,54.1580064 Z M99.9871766,54.1580064 L101.898943,54.1580064 L101.898943,43.4505596 L99.9871766,43.4505596 L99.9871766,54.1580064 Z M92.3894319,48.8328362 C93.0331766,48.3487298 93.8469426,48.0333468 94.6607085,48.0333468 C95.7885596,48.0333468 96.3154957,48.4317936 96.3154957,49.6180489 L95.2590277,49.6180489 C94.4608362,49.6180489 93.517283,49.6894319 92.7904745,50.0463468 C92.0623681,50.4045596 91.5328362,51.0457085 91.5328362,52.1450064 C91.5328362,53.5441128 92.8047511,54.3280277 94.1026234,54.3280277 C94.9747936,54.3280277 95.9300277,53.8711766 96.3739,53.0574106 L96.4024532,53.0574106 C96.4167298,53.2858362 96.4167298,53.7725383 96.4881128,54.1580064 L98.1714532,54.1580064 C98.1286234,53.5856447 98.1000702,53.0729851 98.0857936,52.5161979 C98.0728149,51.9736872 98.0572404,51.4156021 98.0572404,50.6758149 L98.0572404,49.7322617 C98.0572404,47.5622191 97.1292617,46.6342404 94.889134,46.6342404 C94.0753681,46.6342404 93.0760064,46.8470915 92.3336234,47.1897298 L92.3894319,48.8328362 Z M94.5750489,52.9289213 C93.8897723,52.9289213 93.3602404,52.657666 93.3602404,52.0320915 C93.3602404,50.9029426 94.6321553,50.7588787 95.4874532,50.7588787 L96.3154957,50.7588787 C96.3154957,51.3312404 96.2298362,51.8594745 95.9157511,52.2721979 C95.6159426,52.6732404 95.1603894,52.9289213 94.5750489,52.9289213 Z M89.7794106,44.4343468 C88.921517,44.178666 88.0091128,44.0216234 86.8514106,44.0216234 C83.4691553,44.0216234 81.3860702,45.9346872 81.3860702,49.3467936 C81.3860702,52.7160702 83.6261979,54.3280277 86.8514106,54.3280277 C87.9234532,54.3280277 89.0214532,54.0996021 90.0779213,53.816666 L90.0779213,48.4473681 L86.0519213,48.4473681 L86.0519213,50.0164957 L88.1661553,50.0164957 L88.1661553,52.6148362 C87.8222191,52.7004957 87.3939213,52.7589 86.8514106,52.7589 C84.7241979,52.7589 83.4691553,51.2313043 83.4691553,49.2027298 C83.4691553,47.1624745 84.7527511,45.5933468 87.0798362,45.5933468 C87.8806234,45.5933468 88.8786872,45.7633681 89.6496234,46.120283 L89.7794106,44.4343468 Z M77.7299638,54.1580064 L79.7273894,54.1580064 L79.7273894,52.1579851 L77.7299638,52.1579851 L77.7299638,54.1580064 Z M72.8045383,51.945134 C72.8045383,53.4000489 73.631283,54.3280277 75.1316234,54.3280277 C75.7013894,54.3280277 76.1452617,54.2722191 76.5437085,54.1580064 L76.4879,52.6446872 C76.2880277,52.7705809 75.9583681,52.8445596 75.6157298,52.8445596 C74.8876234,52.8445596 74.7163043,52.2592191 74.7163043,51.6310489 L74.7163043,48.2033681 L76.416517,48.2033681 L76.416517,46.8042617 L74.7163043,46.8042617 L74.7163043,44.7198787 L72.8045383,45.3337723 L72.8045383,46.8042617 L71.3898574,46.8042617 L71.3898574,48.2033681 L72.8045383,48.2033681 L72.8045383,51.945134 Z M69.9492191,44.3772404 C69.2211128,44.1358362 68.4229213,44.0216234 67.5663255,44.0216234 C65.8103043,44.0216234 64.0828362,44.8353894 64.0828362,47.0638362 C64.0828362,50.3617298 68.4501766,49.5752191 68.4501766,51.4740064 C68.4501766,52.3734319 67.4378362,52.7589 66.6811766,52.7589 C65.8959638,52.7589 65.1107511,52.5149 64.4254745,52.1463043 L64.2385809,53.9425596 C65.2249638,54.1852617 65.7103681,54.3267298 66.7953894,54.3267298 C68.8083894,54.3267298 70.5345596,53.5025809 70.5345596,51.315666 C70.5345596,47.9762404 66.1672191,48.7030489 66.1672191,46.9755809 C66.1672191,45.8905596 67.0523681,45.5933468 67.7363468,45.5933468 C68.4359,45.5933468 69.1354532,45.7490915 69.7636234,46.0203468 L69.9492191,44.3772404 Z M152.327772,37.285666 L154.239538,37.285666 L154.239538,26.5782191 L152.327772,26.5782191 L152.327772,37.285666 Z M144.732623,31.9604957 C145.373772,31.4763894 146.187538,31.1610064 147.001304,31.1610064 C148.129155,31.1610064 148.656091,31.5594532 148.656091,32.7457085 L147.602219,32.7457085 C146.801432,32.7457085 145.857879,32.8170915 145.13107,33.1740064 C144.402964,33.5322191 143.876028,34.1733681 143.876028,35.272666 C143.876028,36.6717723 145.145347,37.4556872 146.443219,37.4556872 C147.315389,37.4556872 148.270623,36.9988362 148.714496,36.1850702 L148.743049,36.1850702 C148.757326,36.4134957 148.757326,36.9001979 148.828709,37.285666 L150.512049,37.285666 C150.471815,36.7133043 150.440666,36.2006447 150.428985,35.6438574 C150.413411,35.1013468 150.397836,34.5432617 150.397836,33.8034745 L150.397836,32.8599213 C150.397836,30.6898787 149.469857,29.7619 147.22973,29.7619 C146.415964,29.7619 145.416602,29.9747511 144.674219,30.3173894 L144.732623,31.9604957 Z M146.915645,36.0565809 C146.230368,36.0565809 145.703432,35.7853255 145.703432,35.1597511 C145.703432,34.0306021 146.972751,33.8865383 147.830645,33.8865383 L148.656091,33.8865383 C148.656091,34.4589 148.573028,34.987134 148.258943,35.3998574 C147.956538,35.8009 147.500985,36.0565809 146.915645,36.0565809 Z M139.420432,35.0727936 C139.420432,36.5277085 140.248474,37.4556872 141.747517,37.4556872 C142.318581,37.4556872 142.759857,37.3998787 143.1609,37.285666 L143.102496,35.7723468 C142.902623,35.8982404 142.57556,35.9722191 142.234219,35.9722191 C141.504815,35.9722191 141.333496,35.3868787 141.333496,34.7587085 L141.333496,31.3310277 L143.031113,31.3310277 L143.031113,29.9319213 L141.333496,29.9319213 L141.333496,27.8488362 L139.420432,28.4627298 L139.420432,29.9319213 L138.007049,29.9319213 L138.007049,31.3310277 L139.420432,31.3310277 L139.420432,35.0727936 Z M134.867496,28.5912191 L136.781857,28.5912191 L136.781857,26.7638149 L134.867496,26.7638149 L134.867496,28.5912191 Z M134.867496,37.285666 L136.781857,37.285666 L136.781857,29.9319213 L134.867496,29.9319213 L134.867496,37.285666 Z M126.101666,40.2824532 L128.013432,40.2824532 L128.013432,36.4420489 L128.043283,36.4420489 C128.712985,37.2558149 129.383985,37.4556872 130.197751,37.4556872 C132.497581,37.4556872 133.323028,35.5997298 133.323028,33.5867298 C133.323028,31.5594532 132.497581,29.7619 130.240581,29.7619 C129.11273,29.7619 128.385921,30.2615809 127.957623,30.9741128 L127.92907,30.9741128 L127.92907,29.9319213 L126.101666,29.9319213 L126.101666,40.2824532 Z M128.027709,33.5867298 C128.027709,32.5601128 128.514411,31.2453681 129.742198,31.2453681 C130.984262,31.2453681 131.325602,32.6016447 131.325602,33.5867298 C131.325602,34.601666 130.968687,35.9722191 129.713645,35.9722191 C128.44173,35.9722191 128.027709,34.6289213 128.027709,33.5867298 Z M124.258687,30.0331553 C123.660368,29.9033681 123.075028,29.7619 122.174304,29.7619 C120.67656,29.7619 119.290432,30.4614532 119.290432,32.0448574 C119.290432,34.6990064 122.618177,33.716517 122.618177,35.1584532 C122.618177,35.8709851 121.844645,36.055283 121.360538,36.055283 C120.703815,36.055283 120.075645,35.8709851 119.477326,35.5711766 L119.363113,37.1403043 C120.06007,37.3284957 120.803751,37.4543894 121.533155,37.4543894 C123.086709,37.4543894 124.615602,36.7704106 124.615602,35.0572191 C124.615602,32.4030702 121.290453,33.1428574 121.290453,31.9747723 C121.290453,31.3453043 121.903049,31.1610064 122.418304,31.1610064 C123.117857,31.1610064 123.546155,31.2752191 124.131496,31.4750915 L124.258687,30.0331553 Z M117.921177,30.0331553 C117.320262,29.9033681 116.733623,29.7619 115.836794,29.7619 C114.336453,29.7619 112.951623,30.4614532 112.951623,32.0448574 C112.951623,34.6990064 116.27807,33.716517 116.27807,35.1584532 C116.27807,35.8709851 115.507134,36.055283 115.023028,36.055283 C114.363709,36.055283 113.738134,35.8709851 113.137219,35.5711766 L113.023006,37.1403043 C113.72256,37.3284957 114.464943,37.4543894 115.193049,37.4543894 C116.749198,37.4543894 118.278091,36.7704106 118.278091,35.0572191 C118.278091,32.4030702 114.949049,33.1428574 114.949049,31.9747723 C114.949049,31.3453043 115.565538,31.1610064 116.078198,31.1610064 C116.777751,31.1610064 117.206049,31.2752191 117.791389,31.4750915 L117.921177,30.0331553 Z M104.702347,37.285666 L106.612815,37.285666 L106.612815,33.686666 C106.612815,32.7457085 106.913921,31.2453681 108.297453,31.2453681 C109.52524,31.2453681 109.539517,32.4588787 109.539517,33.3596021 L109.539517,37.285666 L111.453879,37.285666 L111.453879,32.6444745 C111.453879,30.9896872 110.695921,29.7619 108.954177,29.7619 C107.956113,29.7619 107.142347,30.0889638 106.54273,30.9325809 L106.512879,30.9325809 L106.512879,29.9319213 L104.702347,29.9319213 L104.702347,37.285666 Z M99.3486234,29.7619 C97.177283,29.7619 95.5069213,31.2323894 95.5069213,33.6581128 C95.5069213,35.7723468 96.9190064,37.4556872 99.3486234,37.4556872 C101.788623,37.4556872 103.200709,35.7723468 103.200709,33.6581128 C103.200709,31.2323894 101.530347,29.7619 99.3486234,29.7619 Z M99.3486234,35.9722191 C97.8898149,35.9722191 97.5043468,34.6444957 97.5043468,33.4296872 C97.5043468,32.3290915 98.1065596,31.2440702 99.3486234,31.2440702 C100.602368,31.2440702 101.203283,32.3018362 101.203283,33.4296872 C101.203283,34.6561766 100.817815,35.9722191 99.3486234,35.9722191 Z M91.0539213,35.0727936 C91.0539213,36.5277085 91.880666,37.4556872 93.3810064,37.4556872 C93.9507723,37.4556872 94.3920489,37.3998787 94.7930915,37.285666 L94.737283,35.7723468 C94.5374106,35.8982404 94.2077511,35.9722191 93.8651128,35.9722191 C93.1370064,35.9722191 92.9656872,35.3868787 92.9656872,34.7587085 L92.9656872,31.3310277 L94.6633043,31.3310277 L94.6633043,29.9319213 L92.9656872,29.9319213 L92.9656872,27.8488362 L91.0539213,28.4627298 L91.0539213,29.9319213 L89.6392404,29.9319213 L89.6392404,31.3310277 L91.0539213,31.3310277 L91.0539213,35.0727936 Z M81.7027511,37.285666 L83.614517,37.285666 L83.614517,33.686666 C83.614517,32.7457085 83.9156234,31.2453681 85.3004532,31.2453681 C86.5269426,31.2453681 86.5412191,32.4588787 86.5412191,33.3596021 L86.5412191,37.285666 L88.4555809,37.285666 L88.4555809,32.6444745 C88.4555809,30.9896872 87.6976234,29.7619 85.9558787,29.7619 C84.9578149,29.7619 84.1440489,30.0889638 83.543134,30.9325809 L83.5158787,30.9325809 L83.5158787,29.9319213 L81.7027511,29.9319213 L81.7027511,37.285666 Z M74.149134,31.9604957 C74.7915809,31.4763894 75.6053468,31.1610064 76.4204106,31.1610064 C77.5469638,31.1610064 78.0739,31.5594532 78.0739,32.7457085 L77.0174319,32.7457085 C76.2192404,32.7457085 75.2756872,32.8170915 74.5488787,33.1740064 C73.8207723,33.5322191 73.2912404,34.1733681 73.2912404,35.272666 C73.2912404,36.6717723 74.5631553,37.4556872 75.8610277,37.4556872 C76.7331979,37.4556872 77.6897298,36.9988362 78.1323043,36.1850702 L78.1608574,36.1850702 C78.1738362,36.4134957 78.1738362,36.9001979 78.246517,37.285666 L79.9298574,37.285666 C79.8870277,36.7133043 79.8584745,36.2006447 79.8441979,35.6438574 C79.8312191,35.1013468 79.8156447,34.5432617 79.8156447,33.8034745 L79.8156447,32.8599213 C79.8156447,30.6898787 78.887666,29.7619 76.6475383,29.7619 C75.8337723,29.7619 74.8344106,29.9747511 74.0933255,30.3173894 L74.149134,31.9604957 Z M76.3334532,36.0565809 C75.6481766,36.0565809 75.1186447,35.7853255 75.1186447,35.1597511 C75.1186447,34.0306021 76.3918574,33.8865383 77.2458574,33.8865383 L78.0739,33.8865383 C78.0739,34.4589 77.9895383,34.987134 77.6741553,35.3998574 C77.3743468,35.8009 76.9187936,36.0565809 76.3334532,36.0565809 Z M64.4124957,27.3206021 L66.412517,27.3206021 L66.412517,31.602283 L70.0089213,27.3206021 L72.4644957,27.3206021 L68.3658149,32.0176021 L72.6358149,37.285666 L70.0231979,37.285666 L66.4397723,32.6587511 L66.412517,32.6587511 L66.412517,37.285666 L64.4124957,37.285666 L64.4124957,27.3206021 Z" id="Fill-1" fill="#868686"></path>
                    <path d="M0,13.9278574 L11.3239362,13.9278574 L11.3239362,29.3284106 L23.0190638,29.3284106 L23.0190638,13.9278574 L34.1470213,13.9278574 L34.1470213,54.1904532 L23.0190638,54.1904532 L23.0190638,37.5387511 L11.3239362,37.5387511 L11.3239362,54.1904532 L0,54.1904532 L0,13.9278574 Z" id="Fill-4" fill="#868686"></path>
                    <path d="M39.8978936,54.3276383 L41.1425532,54.3276383 L41.1425532,13.7496596 L39.8978936,13.7496596 L39.8978936,54.3276383 Z M42.6766383,54.3276383 L43.9212979,54.3276383 L43.9212979,13.7496596 L42.6766383,13.7496596 L42.6766383,54.3276383 Z M50.9090426,54.3276383 L52.1498085,54.3276383 L52.1498085,13.7496596 L50.9090426,13.7496596 L50.9090426,54.3276383 Z M51.7085319,8.46731915 L51.7033404,4.2557234 L51.1037234,4.23755319 C51.0855532,4.23495745 49.1997447,4.16876596 46.7000426,3.68076596 L46.7000426,0.964319149 L45.4605745,0.964319149 L45.4605745,3.39653191 C43.0231702,2.81897872 40.8933617,2.01559574 39.1710851,0.987680851 L38.5987234,0.646340426 L38.2963191,1.24206383 C38.1782128,1.47957447 35.420234,7.08248936 38.9309787,11.3654681 L39.2904894,11.8067447 L39.761617,11.4822766 C39.7849787,11.4692979 41.8823404,10.0403404 45.4605745,9.16168085 L45.4605745,61 L46.7000426,61 L46.7000426,8.89951064 C48.139383,8.62565957 49.6111702,8.47640426 51.0920426,8.46991489 L51.7085319,8.46731915 Z M45.9511702,7.77425532 C42.7493191,8.45044681 40.5507234,9.57310638 39.5902979,10.1298936 C38.7298085,8.8683617 38.4170213,7.48482979 38.4170213,6.20642553 C38.4170213,4.57629787 38.8699787,3.1486383 39.162,2.38678723 C41.0698723,3.42378723 43.3372553,4.24144681 45.9511702,4.79693617 C47.9654681,5.22134043 49.6202553,5.3822766 50.4599787,5.44197872 C50.4599787,6.0156383 50.4638723,6.68793617 50.4651702,7.26419149 C48.9401702,7.3057234 47.4255532,7.46276596 45.9511702,7.77425532 L45.9511702,7.77425532 Z M48.129,54.3276383 L49.3684681,54.3276383 L49.3684681,13.7496596 L48.129,13.7496596 L48.129,54.3276383 Z" id="Fill-6" fill="#A1C517"></path>
                </g>
            </g>
        </g>
    </g>
</svg>