<?xml version="1.0" encoding="UTF-8" standalone="no"?>
<svg xmlns="http://www.w3.org/2000/svg" viewBox="0 0 4000 400">
	<title>Meta Logo SV1-4</title>
	<description>2023-02-04</description>
<g id="Logos">
	<g id="LogoSV1" transform="matrix(4.37,0,0,4.37,50.5,32)">
		<path id="Wortmarke" style="fill:#868686"
			d="m 127.1,61.16 h 1.9 v -3.6 c 0,-0.94 0.3,-2.44 1.7,-2.44 1.2,0 1.3,1.21 1.3,2.11 v 3.93 h 1.9 v -4.64 c 0,-1.66 -0.8,-2.89 -2.5,-2.89 -1,0 -1.8,0.33 -2.4,1.17 h -0.1 v -1 h -1.8 z m -2,-1.97 c -0.7,0.4 -1.5,0.74 -2.5,0.74 -1.1,0 -2,-0.67 -2.1,-1.86 h 5.1 c 0,-2.57 -0.7,-4.44 -3.5,-4.44 -2.3,0 -3.4,1.76 -3.4,3.89 0,2.41 1.4,3.81 3.9,3.81 1,0 1.8,-0.2 2.5,-0.59 z m -4.6,-2.43 c 0.1,-0.98 0.7,-1.73 1.7,-1.73 1.1,0 1.5,0.8 1.6,1.73 z m -5.2,4.4 h 1.9 V 50.45 h -1.9 z m -4,0 h 1.9 V 50.45 h -1.9 z m -7.6,-5.33 c 0.6,-0.48 1.5,-0.8 2.3,-0.8 1.1,0 1.6,0.4 1.6,1.59 h -1 c -0.8,0 -1.8,0.1 -2.5,0.43 -0.7,0.35 -1.3,1 -1.3,2.1 0,1.39 1.3,2.18 2.6,2.18 0.9,0 1.8,-0.46 2.3,-1.27 v 0 c 0,0.23 0,0.71 0.1,1.1 h 1.7 c 0,-0.57 -0.1,-1.09 -0.1,-1.64 0,-0.55 0,-1.1 0,-1.84 v -0.95 c 0,-2.17 -1,-3.1 -3.2,-3.1 -0.8,0 -1.8,0.22 -2.6,0.56 z m 2.2,4.1 c -0.7,0 -1.2,-0.27 -1.2,-0.9 0,-1.13 1.2,-1.27 2.1,-1.27 h 0.8 c 0,0.57 -0.1,1.1 -0.4,1.51 -0.3,0.4 -0.7,0.66 -1.3,0.66 z m -4.8,-8.5 c -0.9,-0.25 -1.77,-0.41 -2.93,-0.41 -3.38,0 -5.46,1.91 -5.46,5.33 0,3.37 2.24,4.98 5.46,4.98 1.07,0 2.13,-0.23 3.23,-0.51 v -5.37 h -4.03 v 1.57 h 2.12 v 2.59 c -0.35,0.1 -0.78,0.15 -1.32,0.15 -2.13,0 -3.38,-1.53 -3.38,-3.56 0,-2.04 1.28,-3.61 3.61,-3.61 0.8,0 1.8,0.17 2.6,0.53 z m -12.05,9.73 h 2 v -2 h -2 z m -4.93,-2.21 c 0,1.45 0.83,2.38 2.33,2.38 0.57,0 1.02,-0.1 1.41,-0.17 l -0.1,-1.52 c -0.2,0.13 -0.53,0.2 -0.87,0.2 -0.73,0 -0.9,-0.58 -0.9,-1.21 V 55.2 h 1.7 v -1.4 h -1.7 v -2.08 l -1.92,0.61 v 1.47 h -1.41 v 1.4 h 1.41 z m -2.85,-7.57 c -0.73,-0.24 -1.53,-0.36 -2.38,-0.36 -1.76,0 -3.49,0.82 -3.49,3.04 0,3.3 4.37,2.52 4.37,4.41 0,0.9 -1.01,1.29 -1.77,1.29 -0.78,0 -1.57,-0.25 -2.25,-0.61 l -0.19,1.79 c 0.98,0.25 1.47,0.39 2.56,0.39 2.01,0 3.73,-0.83 3.73,-3.01 0,-3.34 -4.36,-2.62 -4.36,-4.34 0,-1.09 0.88,-1.39 1.57,-1.39 0.7,0 1.4,0.16 2.02,0.43 z m 82.33,-7.09 h 1.9 V 33.58 h -1.9 z M 156,38.96 c 0.7,-0.48 1.5,-0.8 2.3,-0.8 1.1,0 1.7,0.4 1.7,1.59 h -1.1 c -0.8,0 -1.7,0.1 -2.5,0.42 -0.7,0.36 -1.2,1 -1.2,2.1 0,1.4 1.2,2.19 2.5,2.19 0.9,0 1.9,-0.46 2.3,-1.27 v 0 c 0.1,0.22 0.1,0.71 0.1,1.1 h 1.7 c 0,-0.58 -0.1,-1.09 -0.1,-1.65 0,-0.54 0,-1.1 0,-1.84 v -0.94 c 0,-2.17 -0.9,-3.1 -3.2,-3.1 -0.8,0 -1.8,0.21 -2.5,0.56 z m 2.2,4.1 c -0.7,0 -1.2,-0.27 -1.2,-0.9 0,-1.13 1.3,-1.27 2.1,-1.27 h 0.9 c 0,0.57 -0.1,1.1 -0.4,1.51 -0.3,0.4 -0.8,0.66 -1.4,0.66 z m -7.5,-0.99 c 0,1.46 0.8,2.39 2.3,2.39 0.6,0 1.1,-0.1 1.5,-0.17 l -0.1,-1.52 c -0.2,0.13 -0.5,0.2 -0.9,0.2 -0.7,0 -0.9,-0.58 -0.9,-1.21 v -3.43 h 1.7 v -1.4 h -1.7 v -2.08 l -1.9,0.61 v 1.47 h -1.4 v 1.4 h 1.4 z m -4.5,-6.48 h 1.9 v -1.83 h -1.9 z m 0,8.7 h 1.9 v -7.36 h -1.9 z m -8.8,2.99 h 1.9 v -3.84 0 c 0.7,0.82 1.4,1.02 2.2,1.02 2.3,0 3.1,-1.86 3.1,-3.87 0,-2.03 -0.8,-3.83 -3.1,-3.83 -1.1,0 -1.8,0.5 -2.2,1.21 h -0.1 v -1.04 h -1.8 z m 1.9,-6.69 c 0,-1.03 0.5,-2.34 1.7,-2.34 1.3,0 1.6,1.35 1.6,2.34 0,1.01 -0.3,2.38 -1.6,2.38 -1.3,0 -1.7,-1.34 -1.7,-2.38 z m -3.7,-3.56 c -0.6,-0.13 -1.2,-0.27 -2.1,-0.27 -1.5,0 -2.9,0.7 -2.9,2.28 0,2.66 3.3,1.68 3.3,3.12 0,0.71 -0.8,0.9 -1.2,0.9 -0.7,0 -1.3,-0.19 -1.9,-0.49 l -0.1,1.57 c 0.7,0.19 1.4,0.31 2.1,0.31 1.6,0 3.1,-0.68 3.1,-2.39 0,-2.66 -3.3,-1.92 -3.3,-3.09 0,-0.62 0.6,-0.81 1.1,-0.81 0.7,0 1.1,0.12 1.7,0.32 z m -6.4,0 c -0.6,-0.13 -1.2,-0.27 -2.1,-0.27 -1.5,0 -2.8,0.7 -2.8,2.28 0,2.66 3.3,1.68 3.3,3.12 0,0.71 -0.8,0.9 -1.3,0.9 -0.6,0 -1.3,-0.19 -1.9,-0.49 l -0.1,1.57 c 0.7,0.19 1.5,0.31 2.2,0.31 1.5,0 3.1,-0.68 3.1,-2.39 0,-2.66 -3.4,-1.92 -3.4,-3.09 0,-0.62 0.7,-0.81 1.2,-0.81 0.7,0 1.1,0.12 1.7,0.32 z M 116,44.29 h 1.9 v -3.6 c 0,-0.94 0.3,-2.44 1.7,-2.44 1.2,0 1.2,1.21 1.2,2.11 v 3.93 h 2 v -4.65 c 0,-1.65 -0.8,-2.88 -2.5,-2.88 -1,0 -1.9,0.33 -2.5,1.17 v 0 -1 H 116 Z m -5.3,-7.53 c -2.2,0 -3.9,1.47 -3.9,3.9 0,2.11 1.4,3.8 3.9,3.8 2.4,0 3.8,-1.69 3.8,-3.8 0,-2.43 -1.7,-3.9 -3.8,-3.9 z m 0,6.21 c -1.5,0 -1.9,-1.33 -1.9,-2.54 0,-1.1 0.6,-2.19 1.9,-2.19 1.2,0 1.8,1.06 1.8,2.19 0,1.23 -0.4,2.54 -1.8,2.54 z m -8.3,-0.9 c 0,1.46 0.8,2.39 2.3,2.39 0.6,0 1,-0.1 1.4,-0.17 L 106,42.77 c -0.2,0.13 -0.5,0.2 -0.9,0.2 -0.7,0 -0.9,-0.58 -0.9,-1.21 v -3.43 h 1.7 v -1.4 h -1.7 v -2.08 l -1.9,0.61 v 1.47 h -1.4 v 1.4 h 1.4 z m -9.38,2.22 h 1.91 v -3.6 c 0,-0.94 0.31,-2.44 1.69,-2.44 1.23,0 1.24,1.21 1.24,2.11 v 3.93 h 1.92 v -4.65 c 0,-1.65 -0.76,-2.88 -2.5,-2.88 -1,0 -1.82,0.33 -2.42,1.17 v 0 -1 h -1.84 z m -7.55,-5.33 c 0.64,-0.48 1.46,-0.8 2.27,-0.8 1.13,0 1.65,0.4 1.65,1.59 h -1.05 c -0.8,0 -1.74,0.1 -2.47,0.42 -0.73,0.36 -1.26,1 -1.26,2.1 0,1.4 1.27,2.19 2.57,2.19 0.87,0 1.83,-0.46 2.27,-1.27 v 0 c 0,0.22 0,0.71 0.1,1.1 h 1.68 c 0,-0.58 -0.1,-1.09 -0.1,-1.65 0,-0.54 0,-1.1 0,-1.84 v -0.94 c 0,-2.17 -0.93,-3.1 -3.17,-3.1 -0.82,0 -1.82,0.21 -2.56,0.56 z m 2.18,4.1 c -0.68,0 -1.21,-0.27 -1.21,-0.9 0,-1.13 1.27,-1.27 2.13,-1.27 h 0.82 c 0,0.57 -0.1,1.1 -0.4,1.51 -0.3,0.4 -0.75,0.66 -1.34,0.66 z M 75.73,34.32 h 2 v 4.28 l 3.6,-4.28 h 2.45 l -4.09,4.7 4.27,5.27 h -2.62 l -3.58,-4.63 v 0 4.63 h -2 z"
		/>
		<path id="H" style="fill:#868686"
			d="m 11.32,20.93 h 11.32 v 15.4 h 11.7 V 20.93 H 45.47 V 61.19 H 34.34 V 44.54 H 22.64 V 61.19 H 11.32 Z"
		/>
		<path id="Liktorenbündel" style="fill:#a1c517"
			d="m 51.22,61.33 h 1.24 V 20.75 h -1.24 z m 2.78,0 h 1.24 V 20.75 H 54 Z m 8.23,0 h 1.24 V 20.75 h -1.24 z m 0.8,-45.86 v -4.21 h -0.6 c 0,0 -1.9,-0.1 -4.4,-0.56 V 7.964 H 56.78 V 10.4 C 54.34,9.819 52.21,9.016 50.49,7.988 L 49.92,7.646 49.62,8.242 C 49.5,8.48 46.74,14.08 50.25,18.37 l 0.36,0.44 0.47,-0.33 c 0,0 2.12,-1.44 5.7,-2.32 V 68 h 1.24 V 15.9 c 1.44,-0.27 2.91,-0.42 4.39,-0.43 z m -5.76,-0.7 c -3.2,0.68 -5.4,1.8 -6.36,2.36 -0.86,-1.26 -1.17,-2.65 -1.17,-3.92 0,-1.63 0.45,-3.06 0.74,-3.823 1.91,1.033 4.18,1.853 6.79,2.413 2.02,0.42 3.67,0.58 4.51,0.64 0,0.58 0,1.25 0,1.82 -1.53,0 -3.04,0.2 -4.52,0.51 z m 2.18,46.56 h 1.24 V 20.75 h -1.24 z"
		/>
    </g>
    <g id="LogoSV2" transform="matrix(1.36,0,0,1.36,985,80)">
		<rect id="QuaderLinks" style="fill:#2289ca" x="0" y="0" height="161.2" width="59.3"/>
		<rect id="QuadratOben" style="fill:#2289ca" x="102.1" y="0" height="59.3" width="59.3"/>
		<rect id="QuadratUnten" style="fill:#2289ca" x="102.1" y="101.9" height="59.3" width="59.3"/>
		<path id="SPITALREGION" style="fill:#1e1e1c;"
			d="M 437.1,57 V 35 h -4.3 V 48.5 L 424.1,35 h -3.8 v 22 h 4.3 V 43.5 L 433.3,57 Z M 408.9,46 c 0,4.2 -0.2,5.2 -1.1,6.2 -0.6,0.7 -1.6,1.2 -2.7,1.2 -1.2,0 -2.2,-0.5 -2.8,-1.2 -0.8,-0.9 -1,-1.9 -1,-6.2 0,-4.2 0.2,-5.2 1,-6.2 0.6,-0.7 1.6,-1.2 2.8,-1.2 1.2,0 2.1,0.5 2.7,1.2 0.8,1 1.1,2 1.1,6.2 m 4.2,0 c 0,-3.8 0,-6.5 -2.2,-8.8 -1.5,-1.5 -3.4,-2.4 -5.9,-2.4 -2.5,0 -4.4,0.9 -6,2.4 -2.2,2.2 -2.2,5 -2.2,8.8 0,3.8 -0.1,6.5 2.2,8.8 1.5,1.5 3.5,2.4 6,2.4 2.5,0 4.4,-0.9 5.9,-2.4 2.3,-2.2 2.2,-5 2.2,-8.8 M 389.7,35 h -4.3 v 22 h 4.3 z M 378.3,48 V 44.8 H 370 v 3.6 h 4 v 0.8 c 0,1.1 -0.3,2.1 -1,2.9 -0.7,0.8 -1.8,1.2 -3.1,1.2 -1.2,0 -2.1,-0.4 -2.7,-1.1 -0.8,-0.9 -1,-2 -1,-6.2 0,-4.2 0.2,-5.2 1,-6.2 0.6,-0.7 1.6,-1.2 2.7,-1.2 2.2,0 3.5,1.1 4,3.2 h 4.3 c -0.6,-3.7 -3.2,-7 -8.3,-7 -2.5,0 -4.4,0.9 -5.9,2.4 -2.2,2.2 -2.2,5 -2.2,8.8 0,3.8 -0.1,6.5 2.2,8.8 1.5,1.5 3.5,2.4 5.9,2.4 2.3,0 4.4,-0.7 6.2,-2.5 1.7,-1.6 2.2,-3.5 2.2,-6.7 m -22.6,9 v -3.8 h -10.2 v -5.3 h 8.7 V 44 h -8.7 v -5.2 h 10.2 V 35 h -14.5 v 22 z m -26,-15.2 c 0,1.7 -1.2,2.9 -3.1,2.9 h -4 v -5.8 h 4 c 1.9,0 3.1,1.2 3.1,2.9 M 334.9,57 330,47.5 c 2.1,-0.8 4,-2.7 4,-5.8 0,-3.7 -2.7,-6.7 -7.1,-6.7 h -8.6 v 22 h 4.3 v -8.8 h 3.1 L 330,57 Z M 312,57 V 53.2 H 302 V 35 h -4.3 v 22 z m -26.7,-7.5 h -5.5 l 2.8,-8 z m 6.9,7.5 -8,-22 h -3.4 l -8,22 h 4.5 l 1.3,-3.9 h 7.8 l 1.3,3.9 z M 270.8,38.9 V 35 H 255 v 3.8 h 5.7 V 57 H 265 V 38.9 Z m -22,-3.9 h -4.3 v 22 h 4.3 z m -15,6.9 c 0,1.8 -1.2,3 -3.2,3 h -4 v -6 h 4 c 2,0 3.2,1.2 3.2,3 m 4.3,0 c 0,-3.7 -2.7,-6.9 -7.3,-6.9 h -8.5 v 22 h 4.3 v -8.3 h 4.2 c 4.6,0.1 7.3,-3.1 7.3,-6.8 m -22.6,8.6 c 0,-1.9 -0.5,-3.6 -1.7,-4.7 -0.9,-0.9 -2.2,-1.4 -4.2,-1.7 L 207,43.7 c -0.9,-0.1 -1.6,-0.5 -2,-0.9 -0.5,-0.4 -0.6,-1 -0.6,-1.6 0,-1.5 1.1,-2.8 3.4,-2.8 1.5,0 3.1,0.2 4.5,1.5 l 2.7,-2.7 c -1.9,-1.8 -4.1,-2.6 -7.1,-2.6 -4.8,0 -7.7,2.7 -7.7,6.7 0,1.9 0.5,3.3 1.6,4.3 1,1 2.4,1.5 4.3,1.8 l 2.7,0.4 c 1,0.2 1.5,0.4 1.9,0.8 0.5,0.4 0.7,1.1 0.7,1.9 0,1.8 -1.4,2.7 -3.9,2.7 -2,0 -3.9,-0.5 -5.3,-1.9 l -2.8,2.8 c 2.2,2.2 4.7,2.9 8,2.9 4.5,0.2 8.1,-2.2 8.1,-6.5"
		/>
		<path id="RHEINTAL" style="fill:#1e1e1c;"
			d="M 349.6,91.8 V 89.7 H 338.4 V 69.8 h -2.3 v 22 z m -23.3,-7 h -8.2 l 4.1,-11.6 z m 5,7 -8.1,-22 h -2 l -8.1,22 h 2.5 l 1.8,-5 h 9.6 l 1.8,5 z M 312.5,71.9 v -2.1 h -15.1 v 2.1 h 6.4 v 19.9 h 2.3 V 71.9 Z m -20.4,19.9 v -22 h -2.3 V 87.4 L 278,69.8 h -2.2 v 22 h 2.3 V 74.1 l 11.7,17.6 h 2.3 z m -23.9,-22 h -2.3 v 22 h 2.3 z m -8.4,22 v -2.1 h -11.3 v -7.9 h 9.6 v -2.1 h -9.6 V 72 h 11.3 v -2.1 h -13.6 v 22 h 13.6 z m -21.3,0 v -22 h -2.3 v 9.8 h -10.4 v -9.8 h -2.3 v 22 h 2.3 v -10 h 10.4 v 10 z m -24,-15.9 c 0,2.7 -1.8,4 -4.4,4 h -5.9 v -8.1 h 5.9 c 2.6,0.1 4.4,1.4 4.4,4.1 m 2.8,15.9 -5.2,-10 c 2.8,-0.6 4.8,-2.7 4.8,-5.9 0,-3.8 -2.7,-6.1 -6.5,-6.1 H 202 v 22 h 2.3 V 82 h 5.3 l 5,9.8 z"
		/>
		<path id="WERDENBERG" style="fill:#1e1e1c;"
			d="M 414.1,118.5 V 115 h -7.7 v 2.1 h 5.4 v 1.7 c 0,1.7 -0.3,2.9 -1.2,4 -1,1.2 -2.6,1.9 -4.2,1.9 -1.5,0 -2.8,-0.6 -3.8,-1.5 -1.4,-1.4 -1.5,-2.9 -1.5,-7.5 0,-4.6 0.2,-6.1 1.5,-7.5 1,-1 2.3,-1.6 3.8,-1.6 2.7,0 4.7,1.7 5.3,4.5 h 2.3 c -0.6,-3.9 -3.5,-6.6 -7.7,-6.6 -2.2,0 -4.1,0.8 -5.6,2.3 -2.1,2.1 -2.1,4.2 -2.1,8.9 0,4.7 0,6.8 2.1,8.9 1.5,1.5 3.5,2.3 5.6,2.3 2.3,0 4.3,-0.9 5.9,-2.5 1.3,-1.7 1.9,-3.4 1.9,-5.9 m -23.5,-7.8 c 0,2.7 -1.8,4 -4.4,4 h -5.9 v -8.1 h 5.9 c 2.6,0 4.4,1.4 4.4,4.1 m 2.8,15.8 -5.2,-10 c 2.8,-0.6 4.8,-2.7 4.8,-5.9 0,-3.8 -2.7,-6.1 -6.5,-6.1 H 378 v 22 h 2.3 v -9.8 h 5.3 l 5,9.8 z m -21.5,0 v -2.1 h -11.3 v -7.9 h 9.6 v -2.1 h -9.6 v -7.8 h 11.3 v -2.1 h -13.6 v 22 z m -22.8,-6.2 c 0,2.5 -1.7,4 -4.4,4 h -6 v -8.1 h 6 c 2.7,0.1 4.4,1.7 4.4,4.1 m -0.3,-9.9 c 0,2.6 -1.9,3.8 -4.3,3.8 h -5.7 v -7.6 h 5.7 c 2.4,0 4.3,1.2 4.3,3.8 m 2.7,10 c 0,-2.6 -1.5,-4.4 -3.6,-5.2 1.9,-0.7 3.2,-2.5 3.2,-4.8 0,-3.7 -2.7,-5.9 -6.5,-5.9 h -8.3 v 22 h 8.6 c 3.9,0 6.6,-2.1 6.6,-6.1 m -22.7,6.1 v -22 h -2.3 v 17.6 l -11.7,-17.6 h -2.2 v 22 h 2.3 v -17.6 l 11.7,17.6 z m -22.4,0 v -2.1 h -11.3 v -7.9 h 9.6 v -2.1 h -9.6 v -7.8 h 11.3 v -2.1 h -13.6 v 22 z m -22.7,-11.2 c 0,2.7 0.1,6 -1.5,7.5 -1.1,1.2 -2.6,1.6 -4.3,1.6 h -4.8 v -17.8 h 4.8 c 1.7,0 3.2,0.4 4.3,1.6 1.5,1.6 1.5,4.4 1.5,7.1 m 2.3,0 c 0,-3.1 0.1,-6.4 -2.2,-8.7 -1.3,-1.3 -3.3,-2 -5.6,-2 h -7.5 v 22 h 7.5 c 2.3,0 4.2,-0.7 5.6,-2 2.3,-2.4 2.2,-6.3 2.2,-9.3 m -24.1,-4.6 c 0,2.7 -1.8,4 -4.4,4 h -5.9 v -8.1 h 5.9 c 2.5,0 4.4,1.4 4.4,4.1 m 2.7,15.8 -5.2,-10 c 2.8,-0.6 4.8,-2.7 4.8,-5.9 0,-3.8 -2.7,-6.1 -6.5,-6.1 h -8.4 v 22 h 2.3 v -9.8 h 5.3 l 5,9.8 z m -21.4,0 v -2.1 h -11.3 v -7.9 h 9.6 v -2.1 h -9.6 v -7.8 h 11.3 v -2.1 h -13.6 v 22 z m -18.6,-22 h -2.5 l -4.3,17.7 -4.8,-17.7 h -2.1 l -4.8,17.7 -4.3,-17.7 h -2.5 l 5.6,22 h 2.2 l 4.9,-17.6 4.9,17.6 h 2.2 z"
		/>
		<path id="SARGANSERLAND" style="fill:#1e1e1c" 
			d="m 464.2,150 c 0,2.7 0.1,6 -1.5,7.5 -1.1,1.2 -2.6,1.6 -4.3,1.6 h -4.8 v -17.8 h 4.8 c 1.7,0 3.2,0.4 4.3,1.6 1.6,1.6 1.5,4.4 1.5,7.1 m 2.4,0 c 0,-3.1 0.1,-6.4 -2.2,-8.7 -1.3,-1.3 -3.3,-2 -5.6,-2 h -7.5 v 22 h 7.5 c 2.3,0 4.2,-0.7 5.6,-2 2.3,-2.4 2.2,-6.3 2.2,-9.3 m -22.9,11.2 v -22 h -2.3 v 17.6 l -11.7,-17.6 h -2.2 v 22 h 2.3 v -17.6 l 11.7,17.6 z m -26,-7 h -8.2 l 4.1,-11.6 z m 5,7 -8.1,-22 h -2 l -8.1,22 h 2.5 l 1.8,-5 h 9.6 l 1.8,5 z m -20.7,0 v -2.1 h -11.2 v -19.9 h -2.3 v 22 z m -22.4,-15.8 c 0,2.7 -1.8,4 -4.4,4 h -5.9 v -8.1 h 5.9 c 2.5,0 4.4,1.4 4.4,4.1 m 2.7,15.8 -5.2,-10 c 2.8,-0.6 4.8,-2.7 4.8,-5.9 0,-3.8 -2.7,-6.1 -6.5,-6.1 H 367 v 22 h 2.3 v -9.8 h 5.3 l 5,9.8 z m -21.5,0 v -2.1 h -11.3 v -7.9 h 9.6 v -2.1 h -9.6 v -7.7 h 11.3 v -2.1 h -13.6 v 22 h 13.6 z m -19.7,-6 c 0,-1.8 -0.6,-3.3 -1.9,-4.4 -0.9,-0.8 -1.9,-1.2 -4,-1.5 l -2.4,-0.4 c -1.1,-0.2 -2.3,-0.6 -3,-1.2 -0.7,-0.6 -1,-1.5 -1,-2.5 0,-2.4 1.7,-4.1 4.6,-4.1 2.3,0 3.8,0.6 5.1,1.9 l 1.5,-1.5 c -1.9,-1.7 -3.7,-2.4 -6.5,-2.4 -4.4,0 -7,2.5 -7,6.2 0,1.8 0.6,3.1 1.7,4.1 1,0.8 2.3,1.4 4,1.7 l 2.6,0.4 c 1.6,0.2 2.2,0.4 2.9,1 0.7,0.6 1,1.6 1,2.7 0,2.6 -2,4.1 -5.2,4.1 -2.5,0 -4.2,-0.6 -6,-2.4 l -1.6,1.6 c 2.1,2.1 4.2,2.9 7.5,2.9 4.6,0 7.7,-2.4 7.7,-6.2 m -20.9,6 v -22 h -2.3 v 17.6 L 306.2,139.2 H 304 v 22 h 2.3 v -17.6 l 11.7,17.6 z m -25.9,-7 H 286 l 4.1,-11.6 z m 4.9,7 -8.1,-22 h -2 l -8.1,22 h 2.5 l 1.8,-5 h 9.6 l 1.8,5 z m -21.7,-8 v -3.5 h -7.7 v 2.1 h 5.4 v 1.7 c 0,1.7 -0.3,2.9 -1.2,4 -1,1.2 -2.6,1.9 -4.2,1.9 -1.5,0 -2.8,-0.6 -3.8,-1.5 -1.4,-1.4 -1.5,-2.9 -1.5,-7.5 0,-4.6 0.2,-6.1 1.5,-7.5 1,-1 2.3,-1.6 3.8,-1.6 2.7,0 4.7,1.7 5.3,4.5 h 2.3 c -0.6,-3.9 -3.5,-6.6 -7.7,-6.6 -2.2,0 -4.1,0.8 -5.6,2.3 -2.1,2.1 -2.1,4.2 -2.1,8.9 0,4.7 0,6.8 2.1,8.9 1.5,1.5 3.5,2.3 5.6,2.3 2.3,0 4.3,-0.9 5.9,-2.5 1.4,-1.7 1.9,-3.4 1.9,-5.9 M 254,145.4 c 0,2.7 -1.8,4 -4.4,4 h -5.9 v -8.1 h 5.9 c 2.6,0 4.4,1.4 4.4,4.1 m 2.8,15.8 -5.2,-10 c 2.8,-0.6 4.8,-2.7 4.8,-5.9 0,-3.8 -2.7,-6.1 -6.5,-6.1 h -8.4 v 22 h 2.3 v -9.8 h 5.3 l 5,9.8 z m -25.1,-7 h -8.2 l 4.1,-11.6 z m 4.9,7 -8.1,-22 h -2 l -8.1,22 h 2.5 l 1.8,-5 h 9.6 l 1.8,5 z m -21.4,-6 c 0,-1.8 -0.6,-3.3 -1.9,-4.4 -0.9,-0.8 -1.9,-1.2 -4,-1.5 l -2.4,-0.4 c -1.1,-0.2 -2.3,-0.6 -3,-1.2 -0.7,-0.6 -1,-1.5 -1,-2.5 0,-2.4 1.7,-4.1 4.6,-4.1 2.3,0 3.8,0.6 5.1,1.9 l 1.5,-1.5 c -1.9,-1.7 -3.7,-2.4 -6.5,-2.4 -4.4,0 -7,2.5 -7,6.2 0,1.8 0.6,3.1 1.7,4.1 1,0.8 2.3,1.4 4,1.7 l 2.6,0.4 c 1.6,0.2 2.2,0.4 2.9,1 0.7,0.6 1.1,1.6 1.1,2.7 0,2.6 -2,4.1 -5.2,4.1 -2.5,0 -4.2,-0.6 -6,-2.4 l -1.6,1.6 c 2.1,2.1 4.2,2.9 7.5,2.9 4.5,0 7.6,-2.4 7.6,-6.2"
		/>
    </g>
    <g id="LogoSV3" transform="matrix(2.06,0,0,2.06,1804,120.5)">
		<g id="Wortmarke">
			<path id="Spital" style="fill:#005b72"
				d="m 161.8,59.8 h 4 V 18.1 h -4 z M 137.5,33.6 c 15.2,0 15.2,23 0,23 -6.2,0 -11.2,-4.6 -11.2,-11.6 0,-6.8 5,-11.4 11.2,-11.4 m 11.5,2.6 c -2.2,-4.2 -7,-6.3 -11.6,-6.3 -8.3,0 -15.1,5.8 -15.1,15.1 0,9.4 6.7,15.3 15,15.3 4.4,0 9.1,-2.1 11.7,-6.4 v 5.8 h 3.7 V 30.4 H 149 Z M 105.2,22.1 v 8.3 h -6 v 3.4 h 6 v 16.6 c 0,6.1 2.6,9.8 8.9,9.8 1.9,0 3.8,-0.5 5.7,-1.4 l -1.3,-3.3 c -1.4,0.7 -2.9,1.1 -4.3,1.1 -4,0 -5,-2.4 -5,-6.1 V 33.9 h 9.5 v -3.4 h -9.5 V 21.7 Z M 88.3,21.2 c 0,3.8 5.7,3.8 5.7,0 -0.1,-3.8 -5.7,-3.8 -5.7,0 m 4.8,38.6 h -4 V 30.3 h 4 z M 55.8,73.9 v -20 c 2.4,4.5 7,6.6 11.6,6.6 8.6,0 14.9,-5.7 14.9,-15.3 C 82.3,36 76.1,30.3 67.8,30 62.7,30 58.2,32.6 55.9,36.7 L 55.8,30.4 H 51.9 V 73.9 Z M 67.1,56.6 c -6.3,0 -11,-4.8 -11,-11.4 0,-6.6 4.5,-11.4 11,-11.4 6.3,0 11.1,4 11.1,11.3 0,7.4 -4.9,11.5 -11.1,11.5 M 44.2,24.7 C 40.5,19 34.4,17.4 28.7,17.4 c -7,0 -16,2.8 -15.8,11.6 0,8.1 7.7,9.8 15.6,11.2 6.5,1.1 12.8,2.6 12.7,8.2 0,6.7 -7.3,8 -12.4,8 -5.1,0 -10.9,-1.8 -13.8,-7.2 l -3.6,2 c 3.2,6.7 10.4,9.2 17.4,9.2 7.6,0 16.6,-2.6 16.7,-12 C 45.5,39.5 37.2,37.7 28.9,36.3 22.4,35.2 17,33.9 17,29 c 0,-6.1 6.6,-7.6 11.7,-7.6 4.4,0.1 9.5,1.4 12,5.3 z"
			/>
				<path id="Linth" style="fill:#00ae99"
			d="m 288.3,18.1 v 41.7 h 11 V 44.3 c 0.1,-3.5 2.4,-5.1 4.6,-5.1 2.2,0 3.9,1 4,4.3 v 16.3 h 10.9 V 43.5 c 0,-9.9 -5.6,-13.8 -11.6,-13.8 -3.5,0 -5.8,1.1 -7.9,3.8 V 18.1 Z m -22.5,5.2 v 7.3 h -4.7 V 39 h 4.7 v 9.6 c -0.2,9.2 5.1,11.9 10.9,11.9 3,0 6,-0.5 8.5,-2 l -2.4,-8.1 c -0.9,0.6 -2.1,1 -3.2,1 -1.7,0 -2.9,-0.8 -2.9,-2.9 V 39 h 6.7 v -8.4 h -6.6 v -8.5 z m -8.1,36.5 V 43.5 c 0,-10.5 -5.3,-13.8 -11.5,-13.8 -3.1,-0.1 -6.8,1 -9.3,3.9 l -0.5,-3.2 h -9.7 v 29.4 h 10.8 V 44.3 c 0,-3.9 2.4,-5.7 5.1,-5.7 2,0 4.1,1.3 4.1,4.9 V 59.8 Z M 209.8,30.9 h 11 v 28.9 h -11 z m -0.6,-8.1 c 0,3.6 3.1,5.5 6.2,5.5 3,0 6.1,-1.8 6.1,-5.5 0,-3.7 -3.1,-5.5 -6.1,-5.5 -3.1,0 -6.2,1.9 -6.2,5.5 m -34.7,-4.7 v 41.7 h 31.7 v -10 h -20 V 18.1 Z"
			/>
		</g>
		<path id="Claim"  style="fill:#00ae99"
			d="m 251.7,71.4 c -1.1,0 -2.2,0.7 -2.2,2 0,1.3 1.1,2 2.2,2 1.1,0 2.2,-0.7 2.2,-2 0,-1.3 -1.1,-2 -2.2,-2 z m -67.4,0.2 v 5.2 c 0,0.6 0.1,1.3 0.2,3.1 l -6.4,-8.2 h -3.6 v 15 h 4.3 v -4.8 l -0.1,-3.3 6.3,8.1 h 3.6 V 71.6 Z m 20.6,0.1 v 14.9 h 4 V 81 c 0.1,-1.3 0.9,-1.8 1.7,-1.8 0.8,0 1.3,0.4 1.4,1.6 v 5.9 h 4 v -5.9 c 0,-3.6 -2.1,-5 -4.2,-5 -1.2,0 -2,0.4 -2.8,1.4 h -0.1 v -5.5 z m 18.2,0 v 15.2 h 3.5 l 0.2,-1.2 c 0.9,1 2.3,1.4 3.5,1.3 3.2,-0.2 4.9,-2.1 4.9,-5.5 0,-3.3 -2.1,-5.6 -5.2,-5.6 -1.3,0 -2.3,0.4 -2.9,1.1 v -5.3 z m 38.2,0 v 15.1 h 4.3 V 71.7 Z m 6.7,0 v 14.9 h 4 V 81 c 0.1,-1.3 0.9,-1.8 1.7,-1.8 0.8,0 1.3,0.4 1.4,1.6 v 5.9 h 4 v -5.9 c 0,-3.6 -2.1,-5 -4.2,-5 -1.2,0 -2,0.4 -2.8,1.4 H 272 v -5.5 z m -72.4,4.1 c -3.1,0 -5.2,2.4 -5.2,5.6 0,3.1 1.8,5.3 4.9,5.5 1.2,0.1 2.6,-0.3 3.5,-1.3 l 0.2,1.2 h 3.7 V 76.1 76 h -3.8 l -0.2,1.2 c -0.5,-0.9 -1.6,-1.4 -3.1,-1.4 z m 46.5,0.1 c -2.9,0 -5.9,1.7 -5.9,5.6 0,3.8 2.9,5.5 6.2,5.5 1.9,0 3.6,-0.6 4.9,-1.8 L 245.4,83 c -0.6,0.6 -1.5,0.9 -2.7,0.9 -0.9,0 -2.1,-0.5 -2.4,-1.4 h 7.5 c 0.1,-0.6 0.2,-1.1 0.2,-1.6 0,-3.2 -2.4,-5.1 -5.9,-5 z m 46.3,0 c -1.1,0 -2.4,0.4 -3.3,1.4 l -0.2,-1.2 h -3.5 v 10.7 h 3.9 v -5.6 c 0,-1.5 0.8,-2.1 1.8,-2.1 0.7,0 1.5,0.5 1.5,1.8 h 0.1 v 5.9 h 4 v -5.9 c 0,-3.8 -2,-5 -4.3,-5 z m 11.5,0 c -2.9,0 -5.9,1.7 -5.9,5.6 0,3.8 2.9,5.5 6.2,5.5 1.9,0 3.6,-0.6 4.9,-1.8 L 303.2,83 c -0.6,0.6 -1.5,0.9 -2.7,0.9 -0.9,0 -2.1,-0.5 -2.4,-1.4 h 7.5 c 0.1,-0.6 0.2,-1.1 0.2,-1.6 0,-3.2 -2.4,-5.1 -5.9,-5 z m 14.6,0 c -1.1,0 -2.4,0.4 -3.3,1.4 L 311,76.1 h -3.5 v 10.7 h 3.9 v -5.6 c 0,-1.5 0.8,-2.1 1.8,-2.1 0.7,0 1.5,0.5 1.5,1.8 v 5.9 h 4 v -5.9 c 0,-3.8 -1.9,-5 -4.2,-5 z m -64.8,0.4 v 10.5 h 4 V 76.3 Z m -7.3,2.4 c 0.9,0 1.8,0.4 1.9,1.3 h -3.9 c 0.1,-0.9 1.1,-1.3 2,-1.3 z m 57.8,0 c 0.9,0 1.8,0.4 1.9,1.3 h -3.9 c 0.1,-0.9 1.1,-1.3 2,-1.3 z M 196.5,79 c 1.4,0 2.2,1 2.2,2.4 0,1.2 -0.9,2.3 -2.2,2.3 -1.2,0 -2.1,-0.8 -2.1,-2.3 0,-1.5 0.9,-2.3 2.1,-2.4 z m 32.6,0 c 1.2,0 2.1,0.9 2.1,2.4 0,1.5 -0.9,2.3 -2.1,2.3 -1.3,0 -2.1,-1.1 -2.1,-2.2 0,-1.3 0.7,-2.4 2.1,-2.5 z m 93.6,4.1 c -1.4,0 -2.1,0.9 -2.1,1.9 0,0.9 0.7,1.9 2.1,1.9 1.5,0 2.2,-0.9 2.2,-1.9 0,-0.9 -0.8,-1.9 -2.2,-1.9 z"
			/>
		<polygon id="Visual" style="fill:#00ae99"
		points="370.9,83.5 357.3,36.6 349.5,59.8 324.8,59.8 324.8,53.3 344.8,53.3 357.7,14.7 371.3,61.7 374.2,53.1 396.9,53.1 396.9,59.6 378.9,59.6 "/>
    </g>
    <g id="LogoSV4" transform="matrix(2.908,0,0,2.908,2839,100)">
		<path id="Wortmarke" style="fill:#ef7d00"
			d="m 148.5,12.31 v 1.99 h 1.8 v -1.99 z m 3.5,0 v 1.99 h 1.8 V 12.31 Z M 41.54,12.5 c -2.46,0 -3.98,1.43 -3.98,3.47 0,0.97 0.28,1.7 0.82,2.24 0.52,0.51 1.25,0.81 2.22,0.95 l 1.38,0.2 c 0.54,0.1 0.78,0.19 1.01,0.39 0.24,0.23 0.35,0.56 0.35,0.97 0,0.91 -0.7,1.41 -2.02,1.41 -1.05,0 -2.04,-0.24 -2.75,-0.97 l -1.45,1.45 c 1.13,1.13 2.43,1.52 4.17,1.51 2.4,0 4.24,-1.26 4.24,-3.47 0,-1.01 -0.28,-1.84 -0.89,-2.42 -0.48,-0.44 -1.13,-0.73 -2.18,-0.88 l -1.34,-0.2 c -0.47,-0.1 -0.84,-0.23 -1.06,-0.44 -0.25,-0.23 -0.34,-0.53 -0.34,-0.82 0,-0.79 0.58,-1.44 1.76,-1.44 0.76,0 1.63,0.1 2.34,0.79 l 1.42,-1.4 C 44.26,12.9 43.12,12.5 41.54,12.5 Z m 15.97,0 v 1.7 h 2.13 v -1.7 z m 52.39,0 v 1.7 h 2.2 v -1.7 z m 28.2,0.1 v 11.41 h 2.2 v -4.63 h 4.5 V 17.4 h -4.5 v -2.8 h 5.3 v -1.99 z m 61.1,0 v 9.02 c 0,1.19 0.7,2.39 2.5,2.39 h 1.1 V 22.26 H 202 c -0.5,0 -0.7,-0.26 -0.7,-0.76 v -8.89 z m 29.5,0 v 3.8 c -0.6,-0.61 -1.2,-0.84 -2.1,-0.84 -0.8,0 -1.5,0.29 -2,0.76 -0.9,0.82 -0.9,2.25 -0.9,3.51 0,1.25 0,2.69 0.9,3.53 0.5,0.45 1.2,0.75 2,0.75 0.9,0 1.5,-0.24 2.1,-0.89 v 0.79 h 2 v -11.4 z m 8,0 v 1.99 h 3 v 9.42 H 242 V 14.6 h 2.9 v -1.99 z m 56.8,0 v 11.41 h 2 v -0.79 c 0.6,0.65 1.2,0.89 2.1,0.89 0.8,0 1.6,-0.3 2,-0.75 0.9,-0.84 0.9,-2.28 0.9,-3.53 0,-1.26 0,-2.69 -0.9,-3.51 -0.4,-0.47 -1.2,-0.76 -2,-0.76 -0.9,0 -1.5,0.23 -2,0.84 v -3.8 z m -215.55,0 v 9.02 c 0,1.19 0.72,2.39 2.44,2.39 h 1.19 v -1.76 h -0.81 c -0.53,0 -0.73,-0.26 -0.73,-0.76 V 12.6 Z M 62.78,13.44 V 15.9 H 61.9 v 1.59 h 0.88 v 4.13 c 0,1.19 0.72,2.39 2.42,2.39 h 1.14 v -1.76 h -0.75 c -0.5,0 -0.72,-0.28 -0.72,-0.76 v -4 h 1.47 V 15.9 h -1.47 v -2.46 z m 111.22,0 v 2.46 h -0.8 v 1.59 h 0.8 v 4.13 c 0,1.19 0.8,2.39 2.5,2.39 h 1.1 v -1.76 h -0.8 c -0.5,0 -0.7,-0.28 -0.7,-0.76 v -4 h 1.5 V 15.9 h -1.5 v -2.46 z m -12.3,2.12 c -0.9,0 -1.7,0.41 -2.1,0.9 v -0.81 h -2 v 8.36 h 2.1 v -5.03 c 0,-1.06 0.7,-1.55 1.3,-1.55 0.5,0 0.8,0.18 1.1,0.5 l 1.6,-1.58 c -0.6,-0.57 -1.2,-0.79 -2,-0.79 z m 6.2,0 c -1.7,0 -3.3,0.93 -3.3,2.66 0,1.55 1,2.2 2.5,2.34 l 1.3,0.14 c 0.6,0.1 0.9,0.35 0.9,0.76 0,0.62 -0.8,0.86 -1.5,0.86 -0.7,0 -1.6,-0.1 -2.2,-0.77 l -1.4,1.35 c 1.1,1.06 2.2,1.21 3.5,1.21 2,0 3.6,-0.89 3.6,-2.73 0,-1.41 -0.8,-2.29 -2.5,-2.45 l -1.3,-0.13 c -0.7,-0.1 -0.9,-0.41 -0.9,-0.72 0,-0.42 0.4,-0.8 1.2,-0.8 0.7,0 1.5,0.12 2,0.56 l 1.2,-1.31 c -0.8,-0.74 -1.9,-0.97 -3.1,-0.97 z m 15.4,0 c -2.1,0 -3.6,1.54 -3.6,4.27 0,3.37 1.9,4.28 3.8,4.28 1.5,0 2.4,-0.47 3.2,-1.32 l -1.2,-1.23 c -0.6,0.52 -1,0.78 -1.9,0.78 -1.2,0 -1.9,-0.78 -1.9,-1.86 h 5.3 v -0.92 c 0,-2.3 -1.4,-4 -3.7,-4 z m 10.3,0 c -0.8,0 -1.5,0.29 -2.1,0.87 v -0.78 h -2 v 8.36 h 2.1 v -5.04 c 0,-1.14 0.7,-1.54 1.4,-1.54 0.6,0 1.3,0.4 1.3,1.54 v 5.04 h 2.1 v -5.33 c 0,-0.91 -0.1,-1.7 -0.8,-2.39 -0.5,-0.45 -1.1,-0.73 -2,-0.73 z m 14.3,0 c -1.4,0 -2.2,0.26 -3,1.16 l 1.3,1.29 c 0.4,-0.49 0.8,-0.69 1.6,-0.69 1.1,0 1.5,0.4 1.5,1.31 v 0.43 h -1.9 c -2,0 -2.9,1.09 -2.9,2.41 0,0.75 0.3,1.42 0.7,1.89 0.5,0.5 1.2,0.72 2.1,0.72 1,0 1.5,-0.22 2.1,-0.79 v 0.72 h 2 v -5.5 c 0,-1.96 -1.2,-2.95 -3.5,-2.95 z m 10.5,0 c -0.8,0 -1.5,0.29 -2.1,0.87 v -0.78 h -2 v 8.36 h 2.1 v -5.04 c 0,-1.14 0.7,-1.54 1.4,-1.54 0.6,0 1.3,0.4 1.3,1.54 v 5.04 h 2.1 v -5.33 c 0,-0.91 -0.1,-1.7 -0.8,-2.39 -0.5,-0.45 -1.2,-0.73 -2,-0.73 z m 30.6,0 c -1.3,0 -2.1,0.47 -2.6,1.04 -0.8,0.77 -1,1.71 -1,3.23 0,1.52 0.2,2.46 1,3.25 0.5,0.55 1.3,1.04 2.6,1.04 1.2,0 2.1,-0.49 2.6,-1.04 0.7,-0.79 0.9,-1.73 0.9,-3.25 0,-1.52 -0.2,-2.46 -0.9,-3.23 -0.5,-0.57 -1.4,-1.04 -2.6,-1.04 z m 8.7,0 c -0.9,0 -1.6,0.28 -2.1,0.73 -0.7,0.79 -0.8,1.86 -0.8,3.31 0,1.46 0.1,2.54 0.8,3.32 0.5,0.47 1.2,0.74 2,0.74 0.8,0 1.5,-0.23 2,-0.84 v 0.86 c 0,0.85 -0.4,1.73 -1.7,1.73 -0.7,0 -1.1,-0.2 -1.6,-0.64 l -1.3,1.31 c 0.9,0.83 1.8,1.09 3,1.09 2.3,0 3.7,-1.46 3.7,-3.46 v -8.06 h -2 v 0.79 c -0.6,-0.63 -1.2,-0.88 -2,-0.88 z m 9.5,0 c -0.8,0 -1.6,0.28 -2,0.73 -0.8,0.79 -0.9,1.86 -0.9,3.31 0,1.46 0.1,2.54 0.9,3.32 0.4,0.47 1.2,0.74 2,0.74 0.8,0 1.4,-0.23 2,-0.84 v 0.86 c 0,0.85 -0.5,1.73 -1.7,1.73 -0.7,0 -1.2,-0.2 -1.7,-0.64 l -1.2,1.31 c 0.8,0.83 1.7,1.09 3,1.09 2.2,0 3.7,-1.46 3.7,-3.46 v -8.06 h -2.1 v 0.79 c -0.5,-0.63 -1.1,-0.88 -2,-0.88 z m 10.2,0 c -2.1,0 -3.6,1.54 -3.6,4.27 0,3.37 1.9,4.28 3.9,4.28 1.5,0 2.3,-0.47 3.2,-1.32 l -1.3,-1.23 c -0.5,0.52 -1,0.78 -1.9,0.78 -1.2,0 -1.8,-0.78 -1.8,-1.86 h 5.2 v -0.92 c 0,-2.3 -1.3,-4 -3.7,-4 z m 10.4,0 c -0.8,0 -1.6,0.29 -2.1,0.87 v -0.78 h -2 v 8.36 h 2 v -5.04 c 0,-1.14 0.8,-1.54 1.4,-1.54 0.7,0 1.4,0.4 1.4,1.54 v 5.04 h 2.1 v -5.33 c 0,-0.91 -0.2,-1.7 -0.8,-2.39 -0.5,-0.45 -1.2,-0.73 -2,-0.73 z m 29.3,0 c -0.9,0 -1.7,0.41 -2.1,0.9 v -0.81 h -2.1 v 8.36 h 2.1 v -5.03 c 0,-1.06 0.7,-1.55 1.4,-1.55 0.5,0 0.8,0.18 1.1,0.5 l 1.5,-1.58 c -0.5,-0.57 -1.1,-0.79 -1.9,-0.79 z m 5.8,0 c -0.8,0 -1.5,0.28 -2,0.73 -0.8,0.79 -0.9,1.86 -0.9,3.31 0,1.46 0.1,2.54 0.9,3.32 0.5,0.47 1.2,0.74 2,0.74 0.8,0 1.4,-0.23 2,-0.84 v 0.86 c 0,0.85 -0.5,1.73 -1.7,1.73 -0.7,0 -1.2,-0.2 -1.6,-0.64 l -1.3,1.31 c 0.8,0.83 1.7,1.09 3,1.09 2.2,0 3.7,-1.46 3.7,-3.46 v -8.06 h -2.1 v 0.79 c -0.5,-0.63 -1.1,-0.88 -2,-0.88 z m -270.87,0 c -0.9,0 -1.52,0.25 -2.1,0.88 v -0.79 h -2.02 v 11.43 h 2.1 v -3.8 c 0.53,0.61 1.17,0.83 2.02,0.83 0.8,0 1.56,-0.3 2.03,-0.75 0.82,-0.84 0.85,-2.28 0.85,-3.53 0,-1.26 0,-2.69 -0.85,-3.51 -0.47,-0.47 -1.23,-0.76 -2.03,-0.76 z m 19.59,0 c -1.38,0 -2.18,0.26 -3,1.16 l 1.34,1.29 c 0.42,-0.49 0.78,-0.69 1.59,-0.69 1.11,0 1.56,0.4 1.56,1.31 v 0.43 h -1.97 c -1.95,0 -2.86,1.09 -2.86,2.41 0,0.75 0.25,1.42 0.69,1.89 0.5,0.5 1.18,0.73 2.14,0.73 0.95,0 1.49,-0.23 2.05,-0.8 v 0.72 h 2.04 v -5.5 c 0,-1.96 -1.22,-2.95 -3.58,-2.95 z m 16.11,0 c -0.9,0 -1.69,0.41 -2.1,0.9 v -0.8 H 83.6 v 8.36 h 2.08 v -5.03 c 0,-1.06 0.71,-1.55 1.35,-1.55 0.52,0 0.79,0.18 1.11,0.5 l 1.56,-1.58 c -0.57,-0.57 -1.15,-0.79 -1.97,-0.79 z m 6.5,0 c -2.17,0 -3.65,1.54 -3.65,4.27 0,3.37 1.89,4.29 3.87,4.28 1.51,0 2.32,-0.47 3.17,-1.32 l -1.26,-1.23 c -0.53,0.52 -0.97,0.78 -1.9,0.78 -1.17,0 -1.82,-0.78 -1.82,-1.86 h 5.22 v -0.92 c 0,-2.3 -1.3,-4 -3.63,-4 z m 8.67,0 c -0.8,0 -1.5,0.28 -2,0.73 -0.8,0.79 -0.8,1.86 -0.8,3.31 0,1.46 0,2.54 0.8,3.32 0.5,0.47 1.2,0.74 2,0.74 0.8,0 1.5,-0.23 2,-0.84 v 0.86 c 0,0.85 -0.4,1.73 -1.7,1.73 -0.7,0 -1.1,-0.2 -1.6,-0.64 l -1.3,1.31 c 0.9,0.83 1.7,1.09 3,1.09 2.3,0 3.7,-1.46 3.7,-3.47 v -8.05 h -2 v 0.8 c -0.6,-0.64 -1.2,-0.89 -2.1,-0.89 z m 15.2,0 c -1.2,0 -2.1,0.47 -2.6,1.04 -0.7,0.77 -0.9,1.71 -0.9,3.23 0,1.52 0.2,2.46 0.9,3.25 0.5,0.55 1.4,1.03 2.6,1.03 1.2,0 2.1,-0.48 2.6,-1.03 0.8,-0.79 1,-1.73 1,-3.25 0,-1.52 -0.2,-2.46 -1,-3.23 -0.5,-0.57 -1.4,-1.04 -2.6,-1.04 z m 10.3,0 c -0.8,0 -1.5,0.29 -2.1,0.87 v -0.78 h -2 v 8.36 h 2.1 v -5.05 c 0,-1.13 0.7,-1.53 1.4,-1.53 0.6,0 1.3,0.4 1.3,1.53 v 5.05 h 2.1 v -5.33 c 0,-0.92 -0.2,-1.7 -0.8,-2.39 -0.5,-0.45 -1.2,-0.73 -2,-0.73 z m 19.3,0.1 v 5.35 c 0,0.91 0.2,1.7 0.8,2.37 0.5,0.47 1.2,0.74 2,0.74 0.8,0 1.6,-0.3 2.1,-0.88 v 0.78 h 2 v -8.36 h -2 v 5.06 c 0,1.14 -0.8,1.52 -1.4,1.52 -0.7,0 -1.4,-0.38 -1.4,-1.52 v -5.06 z m 155.3,0 v 5.35 c 0,0.91 0.2,1.7 0.9,2.37 0.4,0.47 1.1,0.74 1.9,0.74 0.8,0 1.6,-0.3 2.1,-0.88 v 0.78 h 2.1 v -8.36 h -2.1 v 5.06 c 0,1.14 -0.8,1.52 -1.4,1.52 -0.7,0 -1.4,-0.38 -1.4,-1.52 v -5.06 z m -245.46,0 v 8.36 h 2.08 v -8.36 z m 52.46,0 v 8.36 h 2.1 v -8.36 z m 73.3,1.64 c 0.7,0 1.2,0.37 1.4,0.87 0.2,0.3 0.2,0.53 0.2,0.9 h -3.2 c 0.1,-0.37 0.1,-0.6 0.2,-0.9 0.2,-0.5 0.7,-0.87 1.4,-0.87 z m 94.1,0 c 0.8,0 1.2,0.37 1.4,0.87 0.2,0.3 0.2,0.53 0.2,0.9 h -3.1 c 0,-0.37 0,-0.6 0.2,-0.9 0.2,-0.5 0.7,-0.87 1.3,-0.87 z m -183.17,0 c 0.7,0 1.17,0.37 1.38,0.87 0.14,0.3 0.19,0.53 0.2,0.9 h -3.17 c 0,-0.37 0.1,-0.6 0.19,-0.9 0.22,-0.5 0.69,-0.87 1.4,-0.87 z m 132.97,0.14 c 1.3,0 1.5,1.03 1.5,2.4 0,1.35 -0.2,2.4 -1.5,2.4 -1.2,0 -1.4,-1.05 -1.4,-2.4 0,-1.37 0.2,-2.4 1.4,-2.4 z m 21.8,0 c 0.4,0 0.7,0.14 1,0.38 0.4,0.43 0.4,1.16 0.4,2.02 0,0.87 0,1.6 -0.4,2.04 -0.3,0.24 -0.6,0.36 -1,0.36 -0.4,0 -0.8,-0.12 -1,-0.36 -0.4,-0.44 -0.5,-1.17 -0.5,-2.04 0,-0.86 0.1,-1.59 0.5,-2.02 0.2,-0.24 0.6,-0.38 1,-0.38 z m 9.2,0 c 1.3,0 1.4,1.06 1.4,2.17 0,1.11 -0.1,2.19 -1.4,2.19 -1.2,0 -1.3,-1.08 -1.3,-2.19 0,-1.11 0.1,-2.17 1.3,-2.17 z m 9.6,0 c 1.2,0 1.4,1.06 1.4,2.17 0,1.11 -0.2,2.19 -1.4,2.19 -1.2,0 -1.4,-1.08 -1.4,-2.19 0,-1.11 0.2,-2.17 1.4,-2.17 z m 29.2,0 c 1.2,0 1.4,1.03 1.4,2.4 0,1.35 -0.2,2.4 -1.4,2.4 -1.3,0 -1.4,-1.05 -1.4,-2.4 0,-1.37 0.1,-2.4 1.4,-2.4 z m 26.5,0 c 1.2,0 1.4,1.06 1.4,2.17 0,1.11 -0.2,2.19 -1.4,2.19 -1.2,0 -1.4,-1.08 -1.4,-2.19 0,-1.11 0.2,-2.17 1.4,-2.17 z m -272.1,0 c 1.27,0 1.42,1.03 1.42,2.4 0,1.35 -0.15,2.4 -1.42,2.4 -1.24,0 -1.39,-1.05 -1.39,-2.4 0,-1.37 0.15,-2.4 1.39,-2.4 z m 52.1,0 c 1.3,0 1.4,1.06 1.4,2.17 0,1.11 -0.1,2.19 -1.4,2.19 -1.2,0 -1.3,-1.08 -1.3,-2.19 0,-1.11 0.1,-2.17 1.3,-2.17 z m 14.6,0 c 0.4,0 0.7,0.14 1,0.38 0.4,0.43 0.5,1.15 0.5,2.02 0,0.87 -0.1,1.6 -0.5,2.04 -0.3,0.24 -0.6,0.36 -1,0.36 -0.4,0 -0.7,-0.12 -1,-0.36 -0.4,-0.44 -0.4,-1.17 -0.4,-2.04 0,-0.87 0,-1.59 0.4,-2.02 0.3,-0.24 0.6,-0.38 1,-0.38 z m 89.6,3.05 h 1.6 v 0.46 c 0,0.5 0,0.85 -0.3,1.05 -0.3,0.31 -0.7,0.41 -1.3,0.41 -0.8,0 -1.2,-0.4 -1.2,-0.97 0,-0.6 0.4,-0.95 1.2,-0.95 z m -136.24,0 h 1.65 v 0.46 c 0,0.5 -0.1,0.85 -0.3,1.05 -0.38,0.35 -0.75,0.41 -1.32,0.41 -0.82,0 -1.2,-0.4 -1.2,-0.97 0,-0.6 0.41,-0.95 1.17,-0.95 z"
		/>
		<path id="Man" style="fill:#1e1e1c"
			d="m 41.72,46.27 c 0,0 0,-0.37 -0.25,-0.59 -0.23,-0.24 -0.41,0.43 -1.03,0.43 -0.61,0 -0.79,-0.67 -1.02,-0.43 -0.2,0.22 -0.26,0.59 -0.26,0.59 V 45.3 l 1.28,-0.66 1.32,0.71 z m -4.33,10.92 h 0.94 v 0.38 h -0.94 z m 5.39,0 h 0.94 v 0.38 h -0.94 z m -2.34,-8.96 c -0.91,0 -1.66,-0.85 -1.66,-1.89 0,-1.04 0.75,-1.89 1.66,-1.89 0.92,0 1.66,0.85 1.66,1.89 0,1.04 -0.74,1.89 -1.66,1.89 m 0,-3.4 c -0.7,0 -1.27,0.68 -1.27,1.51 0,0.83 0.57,1.51 1.27,1.51 0.71,0 1.28,-0.68 1.28,-1.51 0,-0.83 -0.57,-1.51 -1.28,-1.51 m -2.08,14.36 -0.49,-0.2 c -0.38,-0.15 -0.65,-0.52 -0.68,-0.92 l -0.52,-7.32 c -0.1,-0.72 0.32,-1.39 0.96,-1.71 0.63,-0.32 1.27,-0.54 1.9,-0.65 l 0.1,-0.56 0.38,0.1 -0.1,0.85 h -0.14 c -0.64,0.1 -1.28,0.3 -1.92,0.63 -0.5,0.25 -0.8,0.78 -0.76,1.34 l 0.53,7.32 c 0,0.26 0.18,0.5 0.43,0.6 l 0.5,0.2 z m 4.16,0 -0.14,-0.35 0.5,-0.2 c 0.24,-0.1 0.41,-0.34 0.43,-0.6 l 0.53,-7.32 c 0,-0.56 -0.26,-1.09 -0.76,-1.34 -0.64,-0.33 -1.29,-0.54 -1.92,-0.63 H 41.02 L 40.9,47.91 h 0.38 l 0.1,0.55 c 0.63,0.11 1.27,0.33 1.89,0.65 0.64,0.32 1.02,0.99 0.97,1.71 l -0.53,7.32 c 0,0.4 -0.29,0.77 -0.67,0.92 z m -4.35,-2.64 h 4.54 v 0.38 h -4.54 z m -0.51,12.22 -0.1,-0.17 c -0.15,-0.34 0,-0.7 0.27,-0.93 l 1.27,-0.98 -1.14,-9.9 v -6.06 h 0.38 v 6.03 l 1.07,10.06 c 0,0.18 0.43,0.1 0.79,0 V 56.76 h 0.38 l -0.1,11.38 z m 5.56,0 -2.96,-0.63 V 56.79 h 0.39 l -0.1,10.03 c 0.52,0.1 0.43,0.14 0.9,0 l 1.08,-10.1 v -6.03 h 0.39 v 6.06 0 l -1.14,9.89 1.28,0.95 c 0.3,0.23 0.4,0.62 0.26,0.96 z"
		/>
		<path id="Woman" style="fill:#1e1e1c" 
			d="m 59.47,47.1 c 0,-1.55 0.9,-2.6 2.02,-2.6 1.12,0 1.98,0.99 1.98,2.58 h -0.86 c 0,0 0.19,-0.93 -0.15,-1.08 -1.23,0.96 -2.99,1.1 -2.99,1.1 m 1.95,1.32 c -0.77,0 -1.44,-0.62 -1.6,-1.47 l 0.38,-0.1 c 0.13,0.67 0.64,1.16 1.22,1.16 0.68,0 1.26,-0.58 1.26,-1.4 v -0.18 l 0.38,-0.1 v 0.23 c 0,1.03 -0.74,1.86 -1.63,1.86 m -2.28,10.2 -0.13,-0.1 c -0.81,-0.41 -0.84,-1.28 -0.77,-2 l 0.31,-6.75 c 0,-0.32 0.23,-0.6 0.53,-0.71 v 0 l 1.48,-0.5 0.1,-0.54 h 0.38 l -0.1,0.78 -1.72,0.57 c -0.16,0.1 -0.26,0.21 -0.28,0.38 l -0.31,6.75 c -0.1,0.91 0.1,1.38 0.56,1.62 l 0.14,0.1 z m 4.53,0 -0.17,-0.34 0.13,-0.1 c 0.48,-0.24 0.65,-0.71 0.56,-1.62 v 0 l -0.31,-6.75 c 0,-0.16 -0.12,-0.31 -0.28,-0.37 l -1.8,-0.62 v -0.66 h 0.35 l 0.1,0.44 1.47,0.54 c 0.3,0.11 0.51,0.39 0.53,0.71 l 0.31,6.75 c 0.1,0.72 0,1.59 -0.77,2 z m -3.95,-8.1 h 3.56 v 0.38 h -3.56 z m 0,10.62 h 3.42 v 0.38 h -3.42 z m -0.49,7.63 -0.1,-0.13 c -0.16,-0.3 -0.1,-0.66 0.2,-0.84 l 0.98,-0.77 c -0.15,-0.96 -1.27,-7.82 -1.43,-9.22 -0.11,-0.99 0.14,-1.94 0.34,-2.7 0.12,-0.43 0.22,-0.81 0.24,-1.12 v -1.21 c 0,-0.37 -0.1,-0.75 -0.1,-1.21 0,-0.91 0.45,-2.59 0.46,-2.66 l 0.37,0.1 c 0,0 -0.4,1.71 -0.44,2.59 v 1.15 c 0,0.38 0.1,0.78 0.1,1.27 0,0.36 -0.13,0.77 -0.25,1.2 -0.2,0.77 -0.43,1.63 -0.33,2.56 0.18,1.49 1.45,9.32 1.45,9.32 0.13,0.1 0.31,0.1 0.5,0 v -5.89 h 0.39 v 6.98 z m 4.24,0 -2.25,-0.55 v -7.04 h 0.38 v 5.94 c 0.29,0.1 0.36,0.1 0.51,0 0,-0.1 1.28,-7.83 1.45,-9.32 0.11,-0.93 -0.13,-1.79 -0.33,-2.56 -0.12,-0.43 -0.23,-0.84 -0.25,-1.2 v -1.27 c 0,-0.37 0.1,-0.72 0.1,-1.15 -0.1,-0.88 -0.45,-2.57 -0.45,-2.59 l 0.37,-0.1 c 0,0.1 0.41,1.75 0.46,2.66 0,0.46 0,0.84 -0.1,1.21 0,0.39 -0.1,0.75 -0.1,1.21 0,0.31 0.12,0.69 0.24,1.12 0.2,0.76 0.46,1.71 0.34,2.7 -0.16,1.4 -1.27,8.26 -1.43,9.22 l 0.98,0.77 c 0.27,0.18 0.36,0.54 0.2,0.84 z"
		/>
		<path id="Boy" style="fill:#1e1e1c"
			d="m 95.78,54.34 c -0.91,0 -1.66,-0.85 -1.66,-1.9 0,-1.04 0.75,-1.89 1.66,-1.89 0.92,0 1.66,0.85 1.66,1.89 0,1.05 -0.74,1.9 -1.66,1.9 m -1.27,-1.9 c 0,0.84 0.57,1.51 1.27,1.51 0.71,0 1.28,-0.67 1.28,-1.51 0,-0.6 -0.24,-0.86 -0.24,-0.86 m -3.21,17.19 -0.1,-0.13 c -0.16,-0.3 -0.1,-0.66 0.2,-0.84 l 0.98,-0.77 c -0.1,-0.55 -0.48,-2.83 -0.85,-5.1 l 0.38,-0.31 c 0.29,1.85 0.63,3.47 0.88,5.33 h 0.49 c 0.14,-2.04 0.1,-5.01 0.39,-5.05 v 6.29 z m 4.35,0 -2.37,-0.56 v -6.52 h 0.39 v 5.24 h 0.48 c 0,0 0.45,-2.54 0.87,-5.09 h 0.36 c -0.37,2.25 -0.74,4.62 -0.82,5.17 l 0.98,0.77 c 0.27,0.18 0.36,0.54 0.2,0.84 z M 97.51,57.15 h 1.03 v 0.38 h -1.03 z m -4.54,0 h 1.07 v 0.38 h -1.07 z m 0.5,4.78 0.45,-5.56 h 0.38 l -0.41,5.09 h 3.8 l 0.42,0.44 z m 3.8,-5.53 h 0.38 l 0.46,5.5 c 0,-0.15 -0.44,-0.33 -0.44,-0.33 z m 0.55,5.23 c 0.34,-0.15 0.59,-0.88 0.59,-1.3 l -0.1,-4.4 c 0,-0.39 -0.28,-0.73 -0.66,-0.82 l -1.47,-0.34 -0.1,-0.73 h 0.39 v 0.46 l 1.2,0.28 c 0.56,0.13 0.96,0.61 0.97,1.18 l 0.1,4.4 c 0,0.51 -0.16,1.18 -0.63,1.54 m -4.64,0 C 93,61.5 92.78,60.8 92.78,60.3 l 0.1,-4.41 c 0,-0.57 0.41,-1.05 0.96,-1.18 l 1.21,-0.28 V 54 h 0.38 l -0.1,0.73 -1.47,0.34 c -0.38,0.1 -0.66,0.43 -0.66,0.82 l -0.1,4.4 c 0,0.42 0.19,0.98 0.54,1.25 z m 1.04,-9.46 c 0,0 1.18,0.35 2.31,-0.86"
		/>
		<path id="Girl" style="fill:#1e1e1c"
			d="m 117.4,50.26 c -0.4,0 -0.6,0.22 -0.7,0.39 h -0.3 c -0.9,0 -1.6,0.84 -1.6,1.86 0,0.72 0.3,1.33 0.9,1.64 l -0.1,0.31 -1.2,0.28 c -0.5,0.13 -0.9,0.61 -0.9,1.18 l -0.1,4.51 c 0,0.53 0.2,1.05 0.7,1.38 0,0.5 0,1.06 0.1,1.76 v 0.16 h 0.6 c 0.2,1.17 0.5,2.86 0.5,3.3 l -0.9,0.77 c -0.3,0.18 -0.4,0.54 -0.2,0.84 v 0.13 l 2.1,-0.53 2.3,0.53 0.1,-0.1 c 0.1,-0.3 0,-0.66 -0.2,-0.84 l -1,-0.77 c 0,-0.45 0.3,-2.16 0.5,-3.35 h 0.6 l 0.1,-0.21 c 0.1,-0.68 0.1,-1.22 0.1,-1.71 0.4,-0.33 0.6,-0.82 0.6,-1.35 v -4.5 c -0.1,-0.57 -0.5,-1.05 -1,-1.18 l -1.2,-0.28 -0.1,-0.37 c 0.3,-0.16 0.5,-0.4 0.7,-0.7 0,0.15 0.1,0.28 0.2,0.37 0.5,0.35 1.1,0.35 1.2,0.35 0.2,0 0.2,-0.1 0,-0.2 -0.4,-0.16 -0.9,-0.75 -0.6,-1.7 0.4,-1.15 0,-1.82 -0.9,-1.97 z m -1,1.52 c 0.6,0 1,0.3 1.3,0.5 v 0.2 c 0,0.81 -0.6,1.47 -1.3,1.47 -0.7,0 -1.2,-0.66 -1.2,-1.47 v -0.27 c 0.3,-0.2 0.7,-0.43 1.2,-0.43 z m 0.4,2.45 v 0.5 l 1.5,0.34 c 0.4,0.1 0.7,0.43 0.7,0.82 v 1.26 h -0.7 c 0.1,-0.47 0.1,-0.83 0.1,-0.83 H 118 c 0,0.1 -0.1,1.49 0,2.56 0,0.11 0.1,0.21 0.1,0.31 h -3.3 v -0.25 c 0.2,-1.07 0,-2.46 0,-2.56 h -0.4 c 0,0 0,0.35 0.1,0.74 h -0.6 V 55.9 c 0,-0.39 0.2,-0.72 0.6,-0.82 l 1.5,-0.34 0.1,-0.41 h 0.3 c 0.1,0 0.3,0 0.4,-0.1 z m -2.9,3.3 h 0.6 c 0,0.43 0,0.91 -0.1,1.33 0,0.21 -0.1,0.41 -0.1,0.62 -0.1,0.46 -0.2,1 -0.2,1.73 -0.2,-0.23 -0.3,-0.52 -0.3,-0.82 z m 4.4,0 h 0.7 l 0.1,2.86 c 0,0.3 -0.2,0.59 -0.3,0.83 -0.1,-0.78 -0.2,-1.35 -0.3,-1.83 0,-0.21 -0.1,-0.41 -0.1,-0.62 -0.1,-0.39 -0.1,-0.83 -0.1,-1.24 z m -3.6,2.03 v 0 h 3.5 c 0.1,0.83 0.3,1.77 0.1,3.74 h -1.9 -1.9 c -0.2,-2 0,-2.95 0.2,-3.79 z m 0.5,4.17 h 1 v 3.43 h -0.4 l -0.1,-0.1 c 0,0 -0.3,-1.97 -0.5,-3.32 z m 1.4,0 h 1 c -0.2,1.37 -0.5,3.37 -0.5,3.37 v 0.1 h -0.5 z"
		/>
		<polygon id="Arrow" style="fill:#1e1e1c"
			points="28.99,59.27 21.15,59.27 21.15,58.24 28.99,58.24 25.36,54.63 26.74,54.63 30.87,58.76 26.74,62.88 25.36,62.88 "
		/>
		<path id="Dashes" style="stroke:#1e1e1c;stroke-width:1;stroke-linecap:butt;stroke-miterlimit:4;stroke-dasharray:4.16, 2.7525;stroke-dashoffset:0"
			d="M 0.42,0.5 364.2,0.505 M 0.42,19.92 H 32.2 m 300,0 h 31.9 M 0.42,39.34 364,39.33 M 0.42,58.75 H 18.4 m 30.41,0 H 54 m 15.42,0 H 87.4 m 16.5,0 h 4.1"
		/>
	</g>
</g>
</svg>
