<?xml version="1.0" encoding="UTF-8" standalone="no"?>
<!DOCTYPE svg PUBLIC "-//W3C//DTD SVG 1.0//EN" "http://www.w3.org/TR/2001/REC-SVG-20010904/DTD/svg10.dtd">
<!-- Generiert durch Microsoft Visio 11.0, SVG Export, v1.0 Mail.svg Zeichenblatt-1 -->
<svg xmlns="http://www.w3.org/2000/svg" xmlns:xlink="http://www.w3.org/1999/xlink" xmlns:ev="http://www.w3.org/2001/xml-events"
		xmlns:v="http://schemas.microsoft.com/visio/2003/SVGExtensions/" width="4.73135in" height="4.73135in"
		viewBox="0 0 340.657 340.657" xml:space="preserve" color-interpolation-filters="sRGB" class="st4">
	<v:documentProperties v:langID="1031" v:metric="true" v:viewMarkup="false"/>

	<style type="text/css">
	<![CDATA[
		.st1 {fill:#3a4c85;stroke:none;stroke-linecap:round;stroke-linejoin:round;stroke-width:0.25}
		.st2 {fill:none;stroke:#ffffff;stroke-linecap:round;stroke-linejoin:round;stroke-width:12}
		.st3 {stroke:#ffffff;stroke-linecap:round;stroke-linejoin:round;stroke-width:12}
		.st4 {fill:none;fill-rule:evenodd;font-size:12px;overflow:visible;stroke-linecap:square;stroke-miterlimit:3}
	]]>
	</style>

	<g v:mID="0" v:index="1" v:groupContext="foregroundPage">
		<title>Zeichenblatt-1</title>
		<v:pageProperties v:drawingScale="0.0393701" v:pageScale="0.0393701" v:drawingUnits="24" v:shadowOffsetX="8.50394"
				v:shadowOffsetY="-8.50394"/>
		<g id="shape1-1" v:mID="1" v:groupContext="shape" transform="translate(0.25,-0.25)">
			<title>Abgerundetes Quadrat</title>
			<v:userDefs>
				<v:ud v:nameU="visVersion" v:val="VT0(14):26"/>
				<v:ud v:nameU="msvThemeColors" v:val="VT0(36):26"/>
				<v:ud v:nameU="msvThemeEffects" v:val="VT0(16):26"/>
			</v:userDefs>
			<path d="M255.12 340.66 A85.04 85.04 -180 0 0 340.16 255.62 L340.16 85.54 A85.04 85.04 -180 0 0 255.12 0.5 L85.04 0.5
						 A85.04 85.04 -180 0 0 0 85.54 L0 255.62 A85.04 85.04 -180 0 0 85.04 340.66 L255.12 340.66 Z" class="st1"/>
		</g>
		<g id="shape2-3" v:mID="2" v:groupContext="shape" transform="translate(54.1083,-73.9508)">
			<title>Abgerundetes Rechteck</title>
			<v:userDefs>
				<v:ud v:nameU="visVersion" v:val="VT0(14):26"/>
			</v:userDefs>
			<path d="M218.27 340.66 A14.1733 14.1733 -180 0 0 232.44 326.48 L232.44 162.07 A14.1733 14.1733 -180 0 0 218.27 147.9
						 L14.17 147.9 A14.1733 14.1733 -180 0 0 0 162.07 L0 326.48 A14.1733 14.1733 -180 0 0 14.17 340.66 L218.27
						 340.66 Z" class="st2"/>
		</g>
		<g id="shape5-5" v:mID="5" v:groupContext="shape" transform="translate(321.235,-137.797) rotate(45.8551)">
			<title>Tabelle.5</title>
			<path d="M0 340.66 L134.31 340.66" class="st3"/>
		</g>
		<g id="shape6-8" v:mID="6" v:groupContext="shape" transform="translate(-164.222,3.27435) rotate(-45.03)">
			<title>Tabelle.6</title>
			<path d="M0 340.66 L100.7 340.66" class="st3"/>
		</g>
		<g id="shape9-11" v:mID="9" v:groupContext="shape" transform="translate(19.9897,-137.797) rotate(-45.8551) scale(-1,1)">
			<title>Tabelle.9</title>
			<path d="M0 340.66 L134.31 340.66" class="st3"/>
		</g>
		<g id="shape10-14" v:mID="10" v:groupContext="shape" transform="translate(505.446,3.27435) rotate(45.03) scale(-1,1)">
			<title>Tabelle.10</title>
			<path d="M0 340.66 L100.7 340.66" class="st3"/>
		</g>
	</g>
</svg>
