<?xml version="1.0" encoding="UTF-8" standalone="no"?>
<svg xmlns="http://www.w3.org/2000/svg" viewBox="0 0 1283.04 68.77">
<g id="LogoSV4">
 <path id="Wortmarke" style="fill:#ef7d00" d="m 148.5,12.31 v 1.99 h 1.8 v -1.99 z m 3.5,0 v 1.99 h 1.8 V 12.31 Z M 41.54,12.5 c -2.46,0 -3.98,1.43 -3.98,3.47 0,0.97 0.28,1.7 0.82,2.24 0.52,0.51 1.25,0.81 2.22,0.95 l 1.38,0.2 c 0.54,0.1 0.78,0.19 1.01,0.39 0.24,0.23 0.35,0.56 0.35,0.97 0,0.91 -0.7,1.41 -2.02,1.41 -1.05,0 -2.04,-0.24 -2.75,-0.97 l -1.45,1.45 c 1.13,1.13 2.43,1.52 4.17,1.51 2.4,0 4.24,-1.26 4.24,-3.47 0,-1.01 -0.28,-1.84 -0.89,-2.42 -0.48,-0.44 -1.13,-0.73 -2.18,-0.88 l -1.34,-0.2 c -0.47,-0.1 -0.84,-0.23 -1.06,-0.44 -0.25,-0.23 -0.34,-0.53 -0.34,-0.82 0,-0.79 0.58,-1.44 1.76,-1.44 0.76,0 1.63,0.1 2.34,0.79 l 1.42,-1.4 C 44.26,12.9 43.12,12.5 41.54,12.5 Z m 15.97,0 v 1.7 h 2.13 v -1.7 z m 52.39,0 v 1.7 h 2.2 v -1.7 z m 28.2,0.1 v 11.41 h 2.2 v -4.63 h 4.5 V 17.4 h -4.5 v -2.8 h 5.3 v -1.99 z m 61.1,0 v 9.02 c 0,1.19 0.7,2.39 2.5,2.39 h 1.1 V 22.26 H 202 c -0.5,0 -0.7,-0.26 -0.7,-0.76 v -8.89 z m 29.5,0 v 3.8 c -0.6,-0.61 -1.2,-0.84 -2.1,-0.84 -0.8,0 -1.5,0.29 -2,0.76 -0.9,0.82 -0.9,2.25 -0.9,3.51 0,1.25 0,2.69 0.9,3.53 0.5,0.45 1.2,0.75 2,0.75 0.9,0 1.5,-0.24 2.1,-0.89 v 0.79 h 2 v -11.4 z m 8,0 v 1.99 h 3 v 9.42 H 242 V 14.6 h 2.9 v -1.99 z m 56.8,0 v 11.41 h 2 v -0.79 c 0.6,0.65 1.2,0.89 2.1,0.89 0.8,0 1.6,-0.3 2,-0.75 0.9,-0.84 0.9,-2.28 0.9,-3.53 0,-1.26 0,-2.69 -0.9,-3.51 -0.4,-0.47 -1.2,-0.76 -2,-0.76 -0.9,0 -1.5,0.23 -2,0.84 v -3.8 z m -215.55,0 v 9.02 c 0,1.19 0.72,2.39 2.44,2.39 h 1.19 v -1.76 h -0.81 c -0.53,0 -0.73,-0.26 -0.73,-0.76 V 12.6 Z M 62.78,13.44 V 15.9 H 61.9 v 1.59 h 0.88 v 4.13 c 0,1.19 0.72,2.39 2.42,2.39 h 1.14 v -1.76 h -0.75 c -0.5,0 -0.72,-0.28 -0.72,-0.76 v -4 h 1.47 V 15.9 h -1.47 v -2.46 z m 111.22,0 v 2.46 h -0.8 v 1.59 h 0.8 v 4.13 c 0,1.19 0.8,2.39 2.5,2.39 h 1.1 v -1.76 h -0.8 c -0.5,0 -0.7,-0.28 -0.7,-0.76 v -4 h 1.5 V 15.9 h -1.5 v -2.46 z m -12.3,2.12 c -0.9,0 -1.7,0.41 -2.1,0.9 v -0.81 h -2 v 8.36 h 2.1 v -5.03 c 0,-1.06 0.7,-1.55 1.3,-1.55 0.5,0 0.8,0.18 1.1,0.5 l 1.6,-1.58 c -0.6,-0.57 -1.2,-0.79 -2,-0.79 z m 6.2,0 c -1.7,0 -3.3,0.93 -3.3,2.66 0,1.55 1,2.2 2.5,2.34 l 1.3,0.14 c 0.6,0.1 0.9,0.35 0.9,0.76 0,0.62 -0.8,0.86 -1.5,0.86 -0.7,0 -1.6,-0.1 -2.2,-0.77 l -1.4,1.35 c 1.1,1.06 2.2,1.21 3.5,1.21 2,0 3.6,-0.89 3.6,-2.73 0,-1.41 -0.8,-2.29 -2.5,-2.45 l -1.3,-0.13 c -0.7,-0.1 -0.9,-0.41 -0.9,-0.72 0,-0.42 0.4,-0.8 1.2,-0.8 0.7,0 1.5,0.12 2,0.56 l 1.2,-1.31 c -0.8,-0.74 -1.9,-0.97 -3.1,-0.97 z m 15.4,0 c -2.1,0 -3.6,1.54 -3.6,4.27 0,3.37 1.9,4.28 3.8,4.28 1.5,0 2.4,-0.47 3.2,-1.32 l -1.2,-1.23 c -0.6,0.52 -1,0.78 -1.9,0.78 -1.2,0 -1.9,-0.78 -1.9,-1.86 h 5.3 v -0.92 c 0,-2.3 -1.4,-4 -3.7,-4 z m 10.3,0 c -0.8,0 -1.5,0.29 -2.1,0.87 v -0.78 h -2 v 8.36 h 2.1 v -5.04 c 0,-1.14 0.7,-1.54 1.4,-1.54 0.6,0 1.3,0.4 1.3,1.54 v 5.04 h 2.1 v -5.33 c 0,-0.91 -0.1,-1.7 -0.8,-2.39 -0.5,-0.45 -1.1,-0.73 -2,-0.73 z m 14.3,0 c -1.4,0 -2.2,0.26 -3,1.16 l 1.3,1.29 c 0.4,-0.49 0.8,-0.69 1.6,-0.69 1.1,0 1.5,0.4 1.5,1.31 v 0.43 h -1.9 c -2,0 -2.9,1.09 -2.9,2.41 0,0.75 0.3,1.42 0.7,1.89 0.5,0.5 1.2,0.72 2.1,0.72 1,0 1.5,-0.22 2.1,-0.79 v 0.72 h 2 v -5.5 c 0,-1.96 -1.2,-2.95 -3.5,-2.95 z m 10.5,0 c -0.8,0 -1.5,0.29 -2.1,0.87 v -0.78 h -2 v 8.36 h 2.1 v -5.04 c 0,-1.14 0.7,-1.54 1.4,-1.54 0.6,0 1.3,0.4 1.3,1.54 v 5.04 h 2.1 v -5.33 c 0,-0.91 -0.1,-1.7 -0.8,-2.39 -0.5,-0.45 -1.2,-0.73 -2,-0.73 z m 30.6,0 c -1.3,0 -2.1,0.47 -2.6,1.04 -0.8,0.77 -1,1.71 -1,3.23 0,1.52 0.2,2.46 1,3.25 0.5,0.55 1.3,1.04 2.6,1.04 1.2,0 2.1,-0.49 2.6,-1.04 0.7,-0.79 0.9,-1.73 0.9,-3.25 0,-1.52 -0.2,-2.46 -0.9,-3.23 -0.5,-0.57 -1.4,-1.04 -2.6,-1.04 z m 8.7,0 c -0.9,0 -1.6,0.28 -2.1,0.73 -0.7,0.79 -0.8,1.86 -0.8,3.31 0,1.46 0.1,2.54 0.8,3.32 0.5,0.47 1.2,0.74 2,0.74 0.8,0 1.5,-0.23 2,-0.84 v 0.86 c 0,0.85 -0.4,1.73 -1.7,1.73 -0.7,0 -1.1,-0.2 -1.6,-0.64 l -1.3,1.31 c 0.9,0.83 1.8,1.09 3,1.09 2.3,0 3.7,-1.46 3.7,-3.46 v -8.06 h -2 v 0.79 c -0.6,-0.63 -1.2,-0.88 -2,-0.88 z m 9.5,0 c -0.8,0 -1.6,0.28 -2,0.73 -0.8,0.79 -0.9,1.86 -0.9,3.31 0,1.46 0.1,2.54 0.9,3.32 0.4,0.47 1.2,0.74 2,0.74 0.8,0 1.4,-0.23 2,-0.84 v 0.86 c 0,0.85 -0.5,1.73 -1.7,1.73 -0.7,0 -1.2,-0.2 -1.7,-0.64 l -1.2,1.31 c 0.8,0.83 1.7,1.09 3,1.09 2.2,0 3.7,-1.46 3.7,-3.46 v -8.06 h -2.1 v 0.79 c -0.5,-0.63 -1.1,-0.88 -2,-0.88 z m 10.2,0 c -2.1,0 -3.6,1.54 -3.6,4.27 0,3.37 1.9,4.28 3.9,4.28 1.5,0 2.3,-0.47 3.2,-1.32 l -1.3,-1.23 c -0.5,0.52 -1,0.78 -1.9,0.78 -1.2,0 -1.8,-0.78 -1.8,-1.86 h 5.2 v -0.92 c 0,-2.3 -1.3,-4 -3.7,-4 z m 10.4,0 c -0.8,0 -1.6,0.29 -2.1,0.87 v -0.78 h -2 v 8.36 h 2 v -5.04 c 0,-1.14 0.8,-1.54 1.4,-1.54 0.7,0 1.4,0.4 1.4,1.54 v 5.04 h 2.1 v -5.33 c 0,-0.91 -0.2,-1.7 -0.8,-2.39 -0.5,-0.45 -1.2,-0.73 -2,-0.73 z m 29.3,0 c -0.9,0 -1.7,0.41 -2.1,0.9 v -0.81 h -2.1 v 8.36 h 2.1 v -5.03 c 0,-1.06 0.7,-1.55 1.4,-1.55 0.5,0 0.8,0.18 1.1,0.5 l 1.5,-1.58 c -0.5,-0.57 -1.1,-0.79 -1.9,-0.79 z m 5.8,0 c -0.8,0 -1.5,0.28 -2,0.73 -0.8,0.79 -0.9,1.86 -0.9,3.31 0,1.46 0.1,2.54 0.9,3.32 0.5,0.47 1.2,0.74 2,0.74 0.8,0 1.4,-0.23 2,-0.84 v 0.86 c 0,0.85 -0.5,1.73 -1.7,1.73 -0.7,0 -1.2,-0.2 -1.6,-0.64 l -1.3,1.31 c 0.8,0.83 1.7,1.09 3,1.09 2.2,0 3.7,-1.46 3.7,-3.46 v -8.06 h -2.1 v 0.79 c -0.5,-0.63 -1.1,-0.88 -2,-0.88 z m -270.87,0 c -0.9,0 -1.52,0.25 -2.1,0.88 v -0.79 h -2.02 v 11.43 h 2.1 v -3.8 c 0.53,0.61 1.17,0.83 2.02,0.83 0.8,0 1.56,-0.3 2.03,-0.75 0.82,-0.84 0.85,-2.28 0.85,-3.53 0,-1.26 0,-2.69 -0.85,-3.51 -0.47,-0.47 -1.23,-0.76 -2.03,-0.76 z m 19.59,0 c -1.38,0 -2.18,0.26 -3,1.16 l 1.34,1.29 c 0.42,-0.49 0.78,-0.69 1.59,-0.69 1.11,0 1.56,0.4 1.56,1.31 v 0.43 h -1.97 c -1.95,0 -2.86,1.09 -2.86,2.41 0,0.75 0.25,1.42 0.69,1.89 0.5,0.5 1.18,0.73 2.14,0.73 0.95,0 1.49,-0.23 2.05,-0.8 v 0.72 h 2.04 v -5.5 c 0,-1.96 -1.22,-2.95 -3.58,-2.95 z m 16.11,0 c -0.9,0 -1.69,0.41 -2.1,0.9 v -0.8 H 83.6 v 8.36 h 2.08 v -5.03 c 0,-1.06 0.71,-1.55 1.35,-1.55 0.52,0 0.79,0.18 1.11,0.5 l 1.56,-1.58 c -0.57,-0.57 -1.15,-0.79 -1.97,-0.79 z m 6.5,0 c -2.17,0 -3.65,1.54 -3.65,4.27 0,3.37 1.89,4.29 3.87,4.28 1.51,0 2.32,-0.47 3.17,-1.32 l -1.26,-1.23 c -0.53,0.52 -0.97,0.78 -1.9,0.78 -1.17,0 -1.82,-0.78 -1.82,-1.86 h 5.22 v -0.92 c 0,-2.3 -1.3,-4 -3.63,-4 z m 8.67,0 c -0.8,0 -1.5,0.28 -2,0.73 -0.8,0.79 -0.8,1.86 -0.8,3.31 0,1.46 0,2.54 0.8,3.32 0.5,0.47 1.2,0.74 2,0.74 0.8,0 1.5,-0.23 2,-0.84 v 0.86 c 0,0.85 -0.4,1.73 -1.7,1.73 -0.7,0 -1.1,-0.2 -1.6,-0.64 l -1.3,1.31 c 0.9,0.83 1.7,1.09 3,1.09 2.3,0 3.7,-1.46 3.7,-3.47 v -8.05 h -2 v 0.8 c -0.6,-0.64 -1.2,-0.89 -2.1,-0.89 z m 15.2,0 c -1.2,0 -2.1,0.47 -2.6,1.04 -0.7,0.77 -0.9,1.71 -0.9,3.23 0,1.52 0.2,2.46 0.9,3.25 0.5,0.55 1.4,1.03 2.6,1.03 1.2,0 2.1,-0.48 2.6,-1.03 0.8,-0.79 1,-1.73 1,-3.25 0,-1.52 -0.2,-2.46 -1,-3.23 -0.5,-0.57 -1.4,-1.04 -2.6,-1.04 z m 10.3,0 c -0.8,0 -1.5,0.29 -2.1,0.87 v -0.78 h -2 v 8.36 h 2.1 v -5.05 c 0,-1.13 0.7,-1.53 1.4,-1.53 0.6,0 1.3,0.4 1.3,1.53 v 5.05 h 2.1 v -5.33 c 0,-0.92 -0.2,-1.7 -0.8,-2.39 -0.5,-0.45 -1.2,-0.73 -2,-0.73 z m 19.3,0.1 v 5.35 c 0,0.91 0.2,1.7 0.8,2.37 0.5,0.47 1.2,0.74 2,0.74 0.8,0 1.6,-0.3 2.1,-0.88 v 0.78 h 2 v -8.36 h -2 v 5.06 c 0,1.14 -0.8,1.52 -1.4,1.52 -0.7,0 -1.4,-0.38 -1.4,-1.52 v -5.06 z m 155.3,0 v 5.35 c 0,0.91 0.2,1.7 0.9,2.37 0.4,0.47 1.1,0.74 1.9,0.74 0.8,0 1.6,-0.3 2.1,-0.88 v 0.78 h 2.1 v -8.36 h -2.1 v 5.06 c 0,1.14 -0.8,1.52 -1.4,1.52 -0.7,0 -1.4,-0.38 -1.4,-1.52 v -5.06 z m -245.46,0 v 8.36 h 2.08 v -8.36 z m 52.46,0 v 8.36 h 2.1 v -8.36 z m 73.3,1.64 c 0.7,0 1.2,0.37 1.4,0.87 0.2,0.3 0.2,0.53 0.2,0.9 h -3.2 c 0.1,-0.37 0.1,-0.6 0.2,-0.9 0.2,-0.5 0.7,-0.87 1.4,-0.87 z m 94.1,0 c 0.8,0 1.2,0.37 1.4,0.87 0.2,0.3 0.2,0.53 0.2,0.9 h -3.1 c 0,-0.37 0,-0.6 0.2,-0.9 0.2,-0.5 0.7,-0.87 1.3,-0.87 z m -183.17,0 c 0.7,0 1.17,0.37 1.38,0.87 0.14,0.3 0.19,0.53 0.2,0.9 h -3.17 c 0,-0.37 0.1,-0.6 0.19,-0.9 0.22,-0.5 0.69,-0.87 1.4,-0.87 z m 132.97,0.14 c 1.3,0 1.5,1.03 1.5,2.4 0,1.35 -0.2,2.4 -1.5,2.4 -1.2,0 -1.4,-1.05 -1.4,-2.4 0,-1.37 0.2,-2.4 1.4,-2.4 z m 21.8,0 c 0.4,0 0.7,0.14 1,0.38 0.4,0.43 0.4,1.16 0.4,2.02 0,0.87 0,1.6 -0.4,2.04 -0.3,0.24 -0.6,0.36 -1,0.36 -0.4,0 -0.8,-0.12 -1,-0.36 -0.4,-0.44 -0.5,-1.17 -0.5,-2.04 0,-0.86 0.1,-1.59 0.5,-2.02 0.2,-0.24 0.6,-0.38 1,-0.38 z m 9.2,0 c 1.3,0 1.4,1.06 1.4,2.17 0,1.11 -0.1,2.19 -1.4,2.19 -1.2,0 -1.3,-1.08 -1.3,-2.19 0,-1.11 0.1,-2.17 1.3,-2.17 z m 9.6,0 c 1.2,0 1.4,1.06 1.4,2.17 0,1.11 -0.2,2.19 -1.4,2.19 -1.2,0 -1.4,-1.08 -1.4,-2.19 0,-1.11 0.2,-2.17 1.4,-2.17 z m 29.2,0 c 1.2,0 1.4,1.03 1.4,2.4 0,1.35 -0.2,2.4 -1.4,2.4 -1.3,0 -1.4,-1.05 -1.4,-2.4 0,-1.37 0.1,-2.4 1.4,-2.4 z m 26.5,0 c 1.2,0 1.4,1.06 1.4,2.17 0,1.11 -0.2,2.19 -1.4,2.19 -1.2,0 -1.4,-1.08 -1.4,-2.19 0,-1.11 0.2,-2.17 1.4,-2.17 z m -272.1,0 c 1.27,0 1.42,1.03 1.42,2.4 0,1.35 -0.15,2.4 -1.42,2.4 -1.24,0 -1.39,-1.05 -1.39,-2.4 0,-1.37 0.15,-2.4 1.39,-2.4 z m 52.1,0 c 1.3,0 1.4,1.06 1.4,2.17 0,1.11 -0.1,2.19 -1.4,2.19 -1.2,0 -1.3,-1.08 -1.3,-2.19 0,-1.11 0.1,-2.17 1.3,-2.17 z m 14.6,0 c 0.4,0 0.7,0.14 1,0.38 0.4,0.43 0.5,1.15 0.5,2.02 0,0.87 -0.1,1.6 -0.5,2.04 -0.3,0.24 -0.6,0.36 -1,0.36 -0.4,0 -0.7,-0.12 -1,-0.36 -0.4,-0.44 -0.4,-1.17 -0.4,-2.04 0,-0.87 0,-1.59 0.4,-2.02 0.3,-0.24 0.6,-0.38 1,-0.38 z m 89.6,3.05 h 1.6 v 0.46 c 0,0.5 0,0.85 -0.3,1.05 -0.3,0.31 -0.7,0.41 -1.3,0.41 -0.8,0 -1.2,-0.4 -1.2,-0.97 0,-0.6 0.4,-0.95 1.2,-0.95 z m -136.24,0 h 1.65 v 0.46 c 0,0.5 -0.1,0.85 -0.3,1.05 -0.38,0.35 -0.75,0.41 -1.32,0.41 -0.82,0 -1.2,-0.4 -1.2,-0.97 0,-0.6 0.41,-0.95 1.17,-0.95 z"/>
 <path id="Man" style="fill:#1e1e1c" d="m 41.72,46.27 c 0,0 0,-0.37 -0.25,-0.59 -0.23,-0.24 -0.41,0.43 -1.03,0.43 -0.61,0 -0.79,-0.67 -1.02,-0.43 -0.2,0.22 -0.26,0.59 -0.26,0.59 V 45.3 l 1.28,-0.66 1.32,0.71 z m -4.33,10.92 h 0.94 v 0.38 h -0.94 z m 5.39,0 h 0.94 v 0.38 h -0.94 z m -2.34,-8.96 c -0.91,0 -1.66,-0.85 -1.66,-1.89 0,-1.04 0.75,-1.89 1.66,-1.89 0.92,0 1.66,0.85 1.66,1.89 0,1.04 -0.74,1.89 -1.66,1.89 m 0,-3.4 c -0.7,0 -1.27,0.68 -1.27,1.51 0,0.83 0.57,1.51 1.27,1.51 0.71,0 1.28,-0.68 1.28,-1.51 0,-0.83 -0.57,-1.51 -1.28,-1.51 m -2.08,14.36 -0.49,-0.2 c -0.38,-0.15 -0.65,-0.52 -0.68,-0.92 l -0.52,-7.32 c -0.1,-0.72 0.32,-1.39 0.96,-1.71 0.63,-0.32 1.27,-0.54 1.9,-0.65 l 0.1,-0.56 0.38,0.1 -0.1,0.85 h -0.14 c -0.64,0.1 -1.28,0.3 -1.92,0.63 -0.5,0.25 -0.8,0.78 -0.76,1.34 l 0.53,7.32 c 0,0.26 0.18,0.5 0.43,0.6 l 0.5,0.2 z m 4.16,0 -0.14,-0.35 0.5,-0.2 c 0.24,-0.1 0.41,-0.34 0.43,-0.6 l 0.53,-7.32 c 0,-0.56 -0.26,-1.09 -0.76,-1.34 -0.64,-0.33 -1.29,-0.54 -1.92,-0.63 H 41.02 L 40.9,47.91 h 0.38 l 0.1,0.55 c 0.63,0.11 1.27,0.33 1.89,0.65 0.64,0.32 1.02,0.99 0.97,1.71 l -0.53,7.32 c 0,0.4 -0.29,0.77 -0.67,0.92 z m -4.35,-2.64 h 4.54 v 0.38 h -4.54 z m -0.51,12.22 -0.1,-0.17 c -0.15,-0.34 0,-0.7 0.27,-0.93 l 1.27,-0.98 -1.14,-9.9 v -6.06 h 0.38 v 6.03 l 1.07,10.06 c 0,0.18 0.43,0.1 0.79,0 V 56.76 h 0.38 l -0.1,11.38 z m 5.56,0 -2.96,-0.63 V 56.79 h 0.39 l -0.1,10.03 c 0.52,0.1 0.43,0.14 0.9,0 l 1.08,-10.1 v -6.03 h 0.39 v 6.06 0 l -1.14,9.89 1.28,0.95 c 0.3,0.23 0.4,0.62 0.26,0.96 z"/>
 <path id="Woman" style="fill:#1e1e1c" d="m 59.47,47.1 c 0,-1.55 0.9,-2.6 2.02,-2.6 1.12,0 1.98,0.99 1.98,2.58 h -0.86 c 0,0 0.19,-0.93 -0.15,-1.08 -1.23,0.96 -2.99,1.1 -2.99,1.1 m 1.95,1.32 c -0.77,0 -1.44,-0.62 -1.6,-1.47 l 0.38,-0.1 c 0.13,0.67 0.64,1.16 1.22,1.16 0.68,0 1.26,-0.58 1.26,-1.4 v -0.18 l 0.38,-0.1 v 0.23 c 0,1.03 -0.74,1.86 -1.63,1.86 m -2.28,10.2 -0.13,-0.1 c -0.81,-0.41 -0.84,-1.28 -0.77,-2 l 0.31,-6.75 c 0,-0.32 0.23,-0.6 0.53,-0.71 v 0 l 1.48,-0.5 0.1,-0.54 h 0.38 l -0.1,0.78 -1.72,0.57 c -0.16,0.1 -0.26,0.21 -0.28,0.38 l -0.31,6.75 c -0.1,0.91 0.1,1.38 0.56,1.62 l 0.14,0.1 z m 4.53,0 -0.17,-0.34 0.13,-0.1 c 0.48,-0.24 0.65,-0.71 0.56,-1.62 v 0 l -0.31,-6.75 c 0,-0.16 -0.12,-0.31 -0.28,-0.37 l -1.8,-0.62 v -0.66 h 0.35 l 0.1,0.44 1.47,0.54 c 0.3,0.11 0.51,0.39 0.53,0.71 l 0.31,6.75 c 0.1,0.72 0,1.59 -0.77,2 z m -3.95,-8.1 h 3.56 v 0.38 h -3.56 z m 0,10.62 h 3.42 v 0.38 h -3.42 z m -0.49,7.63 -0.1,-0.13 c -0.16,-0.3 -0.1,-0.66 0.2,-0.84 l 0.98,-0.77 c -0.15,-0.96 -1.27,-7.82 -1.43,-9.22 -0.11,-0.99 0.14,-1.94 0.34,-2.7 0.12,-0.43 0.22,-0.81 0.24,-1.12 v -1.21 c 0,-0.37 -0.1,-0.75 -0.1,-1.21 0,-0.91 0.45,-2.59 0.46,-2.66 l 0.37,0.1 c 0,0 -0.4,1.71 -0.44,2.59 v 1.15 c 0,0.38 0.1,0.78 0.1,1.27 0,0.36 -0.13,0.77 -0.25,1.2 -0.2,0.77 -0.43,1.63 -0.33,2.56 0.18,1.49 1.45,9.32 1.45,9.32 0.13,0.1 0.31,0.1 0.5,0 v -5.89 h 0.39 v 6.98 z m 4.24,0 -2.25,-0.55 v -7.04 h 0.38 v 5.94 c 0.29,0.1 0.36,0.1 0.51,0 0,-0.1 1.28,-7.83 1.45,-9.32 0.11,-0.93 -0.13,-1.79 -0.33,-2.56 -0.12,-0.43 -0.23,-0.84 -0.25,-1.2 v -1.27 c 0,-0.37 0.1,-0.72 0.1,-1.15 -0.1,-0.88 -0.45,-2.57 -0.45,-2.59 l 0.37,-0.1 c 0,0.1 0.41,1.75 0.46,2.66 0,0.46 0,0.84 -0.1,1.21 0,0.39 -0.1,0.75 -0.1,1.21 0,0.31 0.12,0.69 0.24,1.12 0.2,0.76 0.46,1.71 0.34,2.7 -0.16,1.4 -1.27,8.26 -1.43,9.22 l 0.98,0.77 c 0.27,0.18 0.36,0.54 0.2,0.84 z"/>
 <path id="Boy" style="fill:#1e1e1c" d="m 95.78,54.34 c -0.91,0 -1.66,-0.85 -1.66,-1.9 0,-1.04 0.75,-1.89 1.66,-1.89 0.92,0 1.66,0.85 1.66,1.89 0,1.05 -0.74,1.9 -1.66,1.9 m -1.27,-1.9 c 0,0.84 0.57,1.51 1.27,1.51 0.71,0 1.28,-0.67 1.28,-1.51 0,-0.6 -0.24,-0.86 -0.24,-0.86 m -3.21,17.19 -0.1,-0.13 c -0.16,-0.3 -0.1,-0.66 0.2,-0.84 l 0.98,-0.77 c -0.1,-0.55 -0.48,-2.83 -0.85,-5.1 l 0.38,-0.31 c 0.29,1.85 0.63,3.47 0.88,5.33 h 0.49 c 0.14,-2.04 0.1,-5.01 0.39,-5.05 v 6.29 z m 4.35,0 -2.37,-0.56 v -6.52 h 0.39 v 5.24 h 0.48 c 0,0 0.45,-2.54 0.87,-5.09 h 0.36 c -0.37,2.25 -0.74,4.62 -0.82,5.17 l 0.98,0.77 c 0.27,0.18 0.36,0.54 0.2,0.84 z M 97.51,57.15 h 1.03 v 0.38 h -1.03 z m -4.54,0 h 1.07 v 0.38 h -1.07 z m 0.5,4.78 0.45,-5.56 h 0.38 l -0.41,5.09 h 3.8 l 0.42,0.44 z m 3.8,-5.53 h 0.38 l 0.46,5.5 c 0,-0.15 -0.44,-0.33 -0.44,-0.33 z m 0.55,5.23 c 0.34,-0.15 0.59,-0.88 0.59,-1.3 l -0.1,-4.4 c 0,-0.39 -0.28,-0.73 -0.66,-0.82 l -1.47,-0.34 -0.1,-0.73 h 0.39 v 0.46 l 1.2,0.28 c 0.56,0.13 0.96,0.61 0.97,1.18 l 0.1,4.4 c 0,0.51 -0.16,1.18 -0.63,1.54 m -4.64,0 C 93,61.5 92.78,60.8 92.78,60.3 l 0.1,-4.41 c 0,-0.57 0.41,-1.05 0.96,-1.18 l 1.21,-0.28 V 54 h 0.38 l -0.1,0.73 -1.47,0.34 c -0.38,0.1 -0.66,0.43 -0.66,0.82 l -0.1,4.4 c 0,0.42 0.19,0.98 0.54,1.25 z m 1.04,-9.46 c 0,0 1.18,0.35 2.31,-0.86"/>
 <path id="Girl" style="fill:#1e1e1c" d="m 117.4,50.26 c -0.4,0 -0.6,0.22 -0.7,0.39 h -0.3 c -0.9,0 -1.6,0.84 -1.6,1.86 0,0.72 0.3,1.33 0.9,1.64 l -0.1,0.31 -1.2,0.28 c -0.5,0.13 -0.9,0.61 -0.9,1.18 l -0.1,4.51 c 0,0.53 0.2,1.05 0.7,1.38 0,0.5 0,1.06 0.1,1.76 v 0.16 h 0.6 c 0.2,1.17 0.5,2.86 0.5,3.3 l -0.9,0.77 c -0.3,0.18 -0.4,0.54 -0.2,0.84 v 0.13 l 2.1,-0.53 2.3,0.53 0.1,-0.1 c 0.1,-0.3 0,-0.66 -0.2,-0.84 l -1,-0.77 c 0,-0.45 0.3,-2.16 0.5,-3.35 h 0.6 l 0.1,-0.21 c 0.1,-0.68 0.1,-1.22 0.1,-1.71 0.4,-0.33 0.6,-0.82 0.6,-1.35 v -4.5 c -0.1,-0.57 -0.5,-1.05 -1,-1.18 l -1.2,-0.28 -0.1,-0.37 c 0.3,-0.16 0.5,-0.4 0.7,-0.7 0,0.15 0.1,0.28 0.2,0.37 0.5,0.35 1.1,0.35 1.2,0.35 0.2,0 0.2,-0.1 0,-0.2 -0.4,-0.16 -0.9,-0.75 -0.6,-1.7 0.4,-1.15 0,-1.82 -0.9,-1.97 z m -1,1.52 c 0.6,0 1,0.3 1.3,0.5 v 0.2 c 0,0.81 -0.6,1.47 -1.3,1.47 -0.7,0 -1.2,-0.66 -1.2,-1.47 v -0.27 c 0.3,-0.2 0.7,-0.43 1.2,-0.43 z m 0.4,2.45 v 0.5 l 1.5,0.34 c 0.4,0.1 0.7,0.43 0.7,0.82 v 1.26 h -0.7 c 0.1,-0.47 0.1,-0.83 0.1,-0.83 H 118 c 0,0.1 -0.1,1.49 0,2.56 0,0.11 0.1,0.21 0.1,0.31 h -3.3 v -0.25 c 0.2,-1.07 0,-2.46 0,-2.56 h -0.4 c 0,0 0,0.35 0.1,0.74 h -0.6 V 55.9 c 0,-0.39 0.2,-0.72 0.6,-0.82 l 1.5,-0.34 0.1,-0.41 h 0.3 c 0.1,0 0.3,0 0.4,-0.1 z m -2.9,3.3 h 0.6 c 0,0.43 0,0.91 -0.1,1.33 0,0.21 -0.1,0.41 -0.1,0.62 -0.1,0.46 -0.2,1 -0.2,1.73 -0.2,-0.23 -0.3,-0.52 -0.3,-0.82 z m 4.4,0 h 0.7 l 0.1,2.86 c 0,0.3 -0.2,0.59 -0.3,0.83 -0.1,-0.78 -0.2,-1.35 -0.3,-1.83 0,-0.21 -0.1,-0.41 -0.1,-0.62 -0.1,-0.39 -0.1,-0.83 -0.1,-1.24 z m -3.6,2.03 v 0 h 3.5 c 0.1,0.83 0.3,1.77 0.1,3.74 h -1.9 -1.9 c -0.2,-2 0,-2.95 0.2,-3.79 z m 0.5,4.17 h 1 v 3.43 h -0.4 l -0.1,-0.1 c 0,0 -0.3,-1.97 -0.5,-3.32 z m 1.4,0 h 1 c -0.2,1.37 -0.5,3.37 -0.5,3.37 v 0.1 h -0.5 z"/>
 <polygon id="Arrow" style="fill:#1e1e1c" points="25.36,54.63 26.74,54.63 30.87,58.76 26.74,62.88 25.36,62.88 28.99,59.27 21.15,59.27 21.15,58.24 28.99,58.24 "/>
 <path id="Dashes" style="stroke:#1e1e1c;stroke-width:1;stroke-linecap:butt;stroke-miterlimit:4;stroke-dasharray:4.16, 2.7525;stroke-dashoffset:0" d="M 0.42,0.5 364.2,0.505 M 0.42,19.92 H 32.2 m 300,0 h 31.9 M 0.42,39.34 364,39.33 M 0.42,58.75 H 18.4 m 30.41,0 H 54 m 15.42,0 H 87.4 m 16.5,0 h 4.1"/>
</g>
<g id="Extension">
 <path id="DashesExtended" style="stroke:#1e1e1c;stroke-width:1;stroke-linecap:butt;stroke-miterlimit:4;stroke-dasharray:4.16, 2.7525;stroke-dashoffset:0" d="M 366.8,0.5069 1283,0.5 M 366.8,19.92 H 1283 m -916.2,19.42 916.2,-0"/>
</g>
</svg>